<svg xmlns="http://www.w3.org/2000/svg" width="30.274" height="47.061" viewBox="0 0 30.274 47.061"><defs><style>.a{fill:#828282;}</style></defs><path class="a" d="M13.206,4.675l1.539-1.539a1.657,1.657,0,0,1,2.35,0l13.477,13.47a1.657,1.657,0,0,1,0,2.35L17.1,32.432a1.657,1.657,0,0,1-2.35,0l-1.539-1.539a1.666,1.666,0,0,1,.028-2.378l8.354-7.958H-14.336A1.66,1.66,0,0,1-16,18.893V16.675a1.66,1.66,0,0,1,1.664-1.664H21.587L13.234,7.053A1.654,1.654,0,0,1,13.206,4.675Z"  transform="translate(-2.647 31.061) rotate(-90)"/></svg>