<svg xmlns="http://www.w3.org/2000/svg" width="25.425" height="19.412" viewBox="0 0 25.425 19.412"><defs><style>.a{stroke:#000;opacity:0.61;}</style></defs><path class="a" d="M5.546,4.055,8.986,7.777l-2.5,4.841,5.2-.976,2.333,5.628L23.924,4.277Zm-.634,8.062.954-.785-1.23.389-.126-.179L8,10.25,4.352,11.317A6.79,6.79,0,0,0,2.126,22.59a6.742,6.742,0,0,1-.882-3.344,6.959,6.959,0,0,1,4.3-6.4l.314-.764-.748.33-.21-.284.011-.011Zm4.35-1.964,1.593-2.812,9.368-2.194L9.263,10.153Z" transform="translate(0.5 -3.54)"/></svg>