<svg xmlns="http://www.w3.org/2000/svg" width="959" height="554.459" viewBox="0 0 959 554.459"><defs><style>.a{fill:#3f3d56;}.b{fill:#a0616a;}.c{fill:#2f2e41;}.d{fill:#575a89;}.e{opacity:0.2;}.f{fill:#6c63ff;}.g{fill:#fbbebe;}.h{fill:#cfcce0;}</style></defs><g transform="translate(0 -0.041)"><rect class="a" width="241" height="2" transform="translate(718 399.5)"/><path class="b" d="M771.744,381.531l7,37,15,4-4-44Z"/><path class="b" d="M855.744,381.531l7,37,15,4-4-44Z"/><path class="c" d="M908.244,584.281s-16-1-16,4-8,22-8,22-6,20,10,18,26-20,26-20l-4-19Z" transform="translate(-120.5 -172.75)"/><path class="c" d="M988.383,586.125s-10.673-6.861-9.91-2.287,1.525,16.771,6.861,17.534,21.346,5.336,22.108,6.861,19.059,7.623,19.059-2.287-11.435-17.534-11.435-17.534l-12.96-9.91s-8.386-.762-9.91,4.574S988.383,586.125,988.383,586.125Z" transform="translate(-120.5 -172.75)"/><path class="b" d="M887,343.75s-17-25-23-17,15,23,15,23Z" transform="translate(-120.5 -172.75)"/><path class="d" d="M893,367.75c-1-1-19-18-19-18l13-9,15,15Z" transform="translate(-120.5 -172.75)"/><path class="d" d="M895.5,290.25s-13,1-12,12,9.5,47.5,9.5,47.5l5,10S916.5,302.25,895.5,290.25Z" transform="translate(-120.5 -172.75)"/><path class="c" d="M896.5,255.25l3.6,12h45.1l1.3-13,3.9,13h5.8l1.3-13,3.9,13h6.1l-5.735-13.817a111.4,111.4,0,0,1-6.047-20.442A38.513,38.513,0,0,0,918,202.25h0q-.8,0-1.587.032c-25.278,1.025-41.467,27.5-31.768,50.862L890.5,267.25h4.8Z" transform="translate(-120.5 -172.75)"/><path class="c" d="M896,359.75s-31,26-22,61,12,145,12,145l31-3v-138l43,82,7,59,35-6-16-72-30.769-91.778L952,369.494Z" transform="translate(-120.5 -172.75)"/><circle class="b" cx="21" cy="21" r="21" transform="translate(776 41.5)"/><path class="b" d="M905,249.75s9,33,4,37,35-13,35-13-17-19-15-27Z" transform="translate(-120.5 -172.75)"/><path class="d" d="M942,266.75s-16.011,13.772-31.506,14.886c0,0-20.494,11.114-19.494,12.114s4,15,4,15,5,7.721,5,24c0,2-7,30-7,30l59,8s16-52,17-70,7-37-2-38S942,266.75,942,266.75Z" transform="translate(-120.5 -172.75)"/><path class="d" d="M965,266.75s7-6,11,8,20,58,16,67-28,49-28,49l-12-8,24-45-14-32Z" transform="translate(-120.5 -172.75)"/><path class="b" d="M957,381.75s-31,19-21,23,27-17,27-17Z" transform="translate(-120.5 -172.75)"/><path class="c" d="M774,38.5v21h8l3-9,.75,9H808l3-9,.75,9H821v-21Z"/><path class="e" d="M894.5,310.25s-2,20,1,24S894.5,310.25,894.5,310.25Z" transform="translate(-120.5 -172.75)"/><rect class="a" width="424" height="2" transform="translate(177 486.5)"/><path class="a" d="M695.71,507.36,572.69,630.38a100.286,100.286,0,0,1-141.82,0c-1.66-1.66-3.26-3.37-4.78-5.13a96.858,96.858,0,0,1-6.99-9,98.777,98.777,0,0,1-15.84-38q-.855-4.455-1.29-9-.465-4.845-.47-9.78a100.753,100.753,0,0,1,3.72-27.22q1.275-4.575,2.99-9a100.065,100.065,0,0,1,22.66-34.69l53.67-53.67a15,15,0,1,1,21.21,21.21l-53.67,53.67a70.869,70.869,0,0,0-10.57,13.48,69.786,69.786,0,0,0-10.01,36.22,72.051,72.051,0,0,0,.67,9.78,68.411,68.411,0,0,0,1.86,9,70.269,70.269,0,0,0,117.45,30.92l30.92-30.92,55-55,37.1-37.1a70.4,70.4,0,0,0,7.87-90.02,15,15,0,1,1,24.611-17.171,100.457,100.457,0,0,1-11.271,128.4Z" transform="translate(-120.5 -172.75)"/><path class="a" d="M888.5,273.03q0,1.11-.03,2.22a99.821,99.821,0,0,1-8.33,38,96.834,96.834,0,0,1-4.5,9,100.559,100.559,0,0,1-16.51,21.69l-53.67,53.67a15,15,0,1,1-21.21-21.21l53.67-53.67c.16-.16.32-.32.47-.48a69.874,69.874,0,0,0,20.07-47c.03-.74.04-1.48.04-2.22q0-3.42-.32-6.78a70.208,70.208,0,0,0-20.26-42.92c-1.07-1.07-2.16-2.1-3.29-3.08a70.29,70.29,0,0,0-92.82,0c-1.13.98-2.22,2.01-3.29,3.08L615.5,346.35a70.375,70.375,0,0,0,0,99.4,15,15,0,0,1-21.21,21.21,100.4,100.4,0,0,1,0-141.82L717.31,202.12a100.387,100.387,0,0,1,156.21,18.13,96.271,96.271,0,0,1,4.97,9,99.434,99.434,0,0,1,9.78,37Q888.495,269.625,888.5,273.03Z" transform="translate(-120.5 -172.75)"/><path class="f" d="M245.816,699.416c-4.581,16.935-20.272,27.422-20.272,27.422s-8.264-16.968-3.683-33.9,20.272-27.423,20.272-27.423S250.4,682.481,245.816,699.416Z" transform="translate(-120.5 -172.75)"/><path class="f" d="M204.14,699.416c4.581,16.935,20.272,27.422,20.272,27.422s8.264-16.968,3.683-33.9-20.272-27.423-20.272-27.423S199.559,682.481,204.14,699.416Z" transform="translate(-120.5 -172.75)"/><path class="a" d="M210.872,695.776c12.571,12.237,14.106,31.048,14.106,31.048s-18.846-1.029-31.416-13.266-14.106-31.048-14.106-31.048S198.3,683.539,210.872,695.776Z" transform="translate(-120.5 -172.75)"/><path class="a" d="M239.084,695.776c-12.571,12.237-14.106,31.048-14.106,31.048s18.846-1.029,31.416-13.266S270.5,682.51,270.5,682.51,251.654,683.539,239.084,695.776Z" transform="translate(-120.5 -172.75)"/><path class="a" d="M803.5,271.25a20.236,20.236,0,0,1-.4,4,20.041,20.041,0,1,1,.4-4Z" transform="translate(-120.5 -172.75)"/><path class="a" d="M508.5,574.25a20.236,20.236,0,0,1-.4,4,20.041,20.041,0,1,1,.4-4Z" transform="translate(-120.5 -172.75)"/><rect class="a" width="231" height="2" transform="translate(0 552.5)"/><path class="f" d="M699.18,220.25h42.63c-1.13.98-2.22,2.01-3.29,3.08l-5.92,5.92H690.18Z" transform="translate(-120.5 -172.75)"/><path class="f" d="M878.49,229.25H843.21a70.168,70.168,0,0,0-5.29-5.92c-1.07-1.07-2.16-2.1-3.29-3.08h38.89a96.271,96.271,0,0,1,4.97,9Z" transform="translate(-120.5 -172.75)"/><path class="f" d="M532.68,93.5H575.1l-9,9H523.68Z"/><path class="f" d="M802.87,266.25a20.176,20.176,0,0,1,.23,9H763.9a20.176,20.176,0,0,1,.23-9Z" transform="translate(-120.5 -172.75)"/><path class="f" d="M888.5,273.03q0,1.11-.03,2.22H858.46c.03-.74.04-1.48.04-2.22q0-3.42-.32-6.78h30.09Q888.495,269.625,888.5,273.03Z" transform="translate(-120.5 -172.75)"/><path class="f" d="M485.68,140.5H528.1l-9,9H476.68Z"/><path class="f" d="M880.14,313.25a96.8,96.8,0,0,1-4.5,9H838.39a69.438,69.438,0,0,0,7.49-9Z" transform="translate(-120.5 -172.75)"/><path class="f" d="M441.51,523.25a69.762,69.762,0,0,0-4.57,9H405.22q1.275-4.575,2.99-9Z" transform="translate(-120.5 -172.75)"/><path class="f" d="M559.32,350.5l-9,9H507.9l9-9Z"/><path class="f" d="M434.03,578.25H403.26q-.855-4.455-1.29-9h30.2a68.425,68.425,0,0,0,1.86,9Z" transform="translate(-120.5 -172.75)"/><path class="f" d="M508.5,574.25a20.236,20.236,0,0,1-.4,4l-39.2,0a20.174,20.174,0,0,1,.23-9h38.74A20.145,20.145,0,0,1,508.5,574.25Z" transform="translate(-120.5 -172.75)"/><path class="f" d="M513.32,396.5l-9,9H461.9l9-9Z"/><path class="f" d="M476.94,625.25H426.09a96.858,96.858,0,0,1-6.99-9h41.24a69.578,69.578,0,0,0,16.6,9Z" transform="translate(-120.5 -172.75)"/><path class="f" d="M586.82,616.25l-9,9h-51.2a69.575,69.575,0,0,0,16.6-9Z" transform="translate(-120.5 -172.75)"/><path class="c" d="M436.094,342.484c-7.645-12.918-22.771-13.52-22.771-13.52s-14.739-1.885-24.194,17.79c-8.813,18.339-20.976,36.045-1.958,40.338l3.435-10.692,2.127,11.488a74.409,74.409,0,0,0,8.137.139c20.366-.658,39.762.192,39.138-7.116C439.178,371.2,443.45,354.914,436.094,342.484Z" transform="translate(-120.5 -172.75)"/><path class="g" d="M260.5,455l1,26h18l-1-28Z"/><path class="c" d="M430,443.75l-1.82,6.05L404.6,528.13l-2.6,8.62,2,92-25,3s-.73-9.66-1.8-23.92c-2.15-28.24-5.67-74.55-7.71-99.75-.75-9.32-1.29-15.75-1.49-17.33-1-8,12-48,12-48l26-2Z" transform="translate(-120.5 -172.75)"/><path class="c" d="M387,650.75s-7-8-8-2-13,29-13,29-35,23-5,25c0,0,15-2,20-10,0,0,8-5,10-5s14-4,12-10-1-28-1-28Z" transform="translate(-120.5 -172.75)"/><path class="g" d="M265.5,431l9,17,14-7-9-20Z"/><path class="e" d="M379,554.75s-7.46-16.3-9.5-41.5c14.48-16.18,32-34,32-34l21-1,6.5-.5c1.52,15.2-11.34,34.78-24.4,50.38A279.2,279.2,0,0,1,379,554.75Z" transform="translate(-120.5 -172.75)"/><path class="c" d="M405,478.75s-64,56-55,79,34,51,34,51l19.315-11.528L385,554.75s7.678-6.809,17.024-16.9c15.209-16.417,34.834-41.521,32.976-60.1l-1-34-17,2Z" transform="translate(-120.5 -172.75)"/><path class="c" d="M399,616.75s-7,0-6,6,3,16,3,16-8,47,11,36,14-40,14-40,7-18-2-20-12-4-13-3S399,616.75,399,616.75Z" transform="translate(-120.5 -172.75)"/><circle class="g" cx="18" cy="18" r="18" transform="translate(274.5 163)"/><path class="g" d="M406,360.75s8,21,5,22-9,6-9,6l10,9,26-14s-12-16-11-23Z" transform="translate(-120.5 -172.75)"/><path class="h" d="M438,379.75s-20.925,10.315-28.462,3.657c0,0-12.538-.657-14.538,6.343s2,13-3,15-8.5,7.5-5.5,16.5,2.5,10.5-1.5,13.5-8,9-8,11-4,2-2,4-2,0,2,2,15-16,23-7,33,24,35,15,8-31,8-31,21-39,15-43S438,379.75,438,379.75Z" transform="translate(-120.5 -172.75)"/><path class="g" d="M435,449.75s-11-2-14,5-20,23-9,24,19-17,19-17l11-2Z" transform="translate(-120.5 -172.75)"/><path class="h" d="M446,385.75l13.078.728S465,392.75,466,398.75s20,51,8,56-38,8-38,8l-3-14,17-6-12-25Z" transform="translate(-120.5 -172.75)"/><path class="e" d="M266,382.5l16.449,41.123L263,382.5l17-18Z"/><path class="e" d="M256.143,427.766,263,436.5h-5Z"/><circle class="c" cx="10.937" cy="10.937" r="10.937" transform="translate(283.737 145.342)"/><path class="c" d="M403.086,326.151a10.937,10.937,0,0,1,9.784-10.875,10.937,10.937,0,1,0,0,21.75,10.937,10.937,0,0,1-9.785-10.875Z" transform="translate(-120.5 -172.75)"/><path class="c" d="M312.214,168.489l-14.944-7.827-20.636,3.2-4.27,18.857,10.629-.409,2.969-6.928V182.2l4.9-.189,2.846-11.029,1.779,11.741,17.434-.356Z"/></g></svg>