<svg xmlns="http://www.w3.org/2000/svg" width="246.906" height="223.965" viewBox="0 0 246.906 223.965"><defs><style>.a{fill:rgba(48,48,48,0.39);}.b{fill:#1c2121;}.c{fill:#bf2227;}.d{fill:rgba(187,31,31,0.86);}.e{fill:#101010;}.f{fill:#101414;}.g{fill:rgba(0,0,0,0.71);}</style></defs><g transform="translate(0)"><path d="M222.216,137.553c-5.667,0-10.119-4.85-10.119-11.022,0-57.314-42.905-104.487-95.929-104.487-52.619,0-95.929,46.733-95.929,104.487,0,6.172-4.452,11.022-10.119,11.022S0,132.7,0,126.531C0,56.873,52.215,0,116.167,0S232.335,56.873,232.335,126.531C232.335,132.7,227.883,137.553,222.216,137.553Z" transform="translate(7.691)"/><path class="a" d="M114.953,0C56.262,0,7.286,48.055,0,109.778a10.516,10.516,0,0,0,9.31,6.172c5.667,0,10.119-4.85,10.119-11.022C19.429,47.615,62.334.441,115.358.441c52.619,0,95.929,46.733,95.929,104.488,0,6.172,4.452,11.022,10.119,11.022,4.048,0,7.286-2.645,9.31-6.172C222.621,47.615,173.644,0,114.953,0Z" transform="translate(8.905 21.603)"/><path class="b" d="M0,64.809c0,11.022,8.5,20.28,18.619,20.28h.4c10.119,0,18.619-9.258,18.619-20.28V20.28C37.643,9.258,29.143,0,19.024,0h-.4C8.5,0,0,9.258,0,20.28Z" transform="translate(209.263 132.704)"/><path class="b" d="M0,0V44.529c0,11.022,8.5,20.28,18.619,20.28h.4c10.119,0,18.619-9.258,18.619-20.28V0" transform="translate(209.263 152.984)"/><path class="c" d="M0,89.939c0,10.14,7.691,18.517,17,18.517H32.786c9.31,0,17-8.377,17-18.517V18.517C49.786,8.377,42.1,0,32.786,0H17C7.691,0,0,8.377,0,18.517Z" transform="translate(186.192 115.509)"/><path class="d" d="M32.786,0H17C7.691,0,0,8.377,0,18.517V89.939c0,10.14,7.691,18.517,17,18.517H32.786c9.31,0,17-8.377,17-18.517" transform="translate(186.192 115.509)"/><path class="e" d="M32.786,0H17C7.691,0,0,8.377,0,18.517V89.939c0,10.14,7.691,18.517,17,18.517H32.786" transform="translate(186.192 115.509)"/><path class="f" d="M32.786,0H12.548C3.238,0,0,8.377,0,18.517V89.939c0,10.14,7.691,18.517,17,18.517" transform="translate(186.192 115.509)"/><path class="b" d="M37.643,64.809c0,11.022-8.5,20.28-18.619,20.28h-.4C8.5,85.089,0,75.831,0,64.809V20.28C0,9.258,8.5,0,18.619,0h.4C29.143,0,37.643,9.258,37.643,20.28Z" transform="translate(0 132.704)"/><path class="b" d="M37.643,0V44.529c0,11.022-8.5,20.28-18.619,20.28h-.4C8.5,64.809,0,55.55,0,44.529V0" transform="translate(0 152.984)"/><path class="c" d="M49.786,89.939c0,10.14-7.691,18.517-17,18.517H17c-9.31,0-17-8.377-17-18.517V18.517C0,8.377,7.691,0,17,0H32.786c9.31,0,17,8.377,17,18.517Z" transform="translate(10.929 115.509)"/><path class="c" d="M17,0H32.786c9.31,0,17,8.377,17,18.517V89.939c0,10.14-7.691,18.517-17,18.517H17c-9.31,0-17-8.377-17-18.517" transform="translate(10.929 115.509)"/><path class="e" d="M0,0H15.786c9.31,0,17,8.377,17,18.517V89.939c0,10.14-7.691,18.517-17,18.517H0" transform="translate(27.929 115.509)"/><path class="g" d="M0,0H20.238c9.31,0,12.548,8.377,12.548,18.517V89.939c0,10.14-7.691,18.517-17,18.517" transform="translate(27.929 115.509)"/></g></svg>