<svg xmlns="http://www.w3.org/2000/svg" width="20" height="23.927" viewBox="0 0 20 23.927"><defs><style>.a{stroke:#000;opacity:0.61;}</style></defs><path class="a" d="M15.5,18.968a2.292,2.292,0,0,0,2.375-2.184A2.292,2.292,0,0,0,15.5,14.6a2.292,2.292,0,0,0-2.375,2.184A2.292,2.292,0,0,0,15.5,18.968Zm7.125-9.826H21.438V6.959A5.715,5.715,0,0,0,15.5,1.5,5.715,5.715,0,0,0,9.562,6.959V9.142H8.375A2.292,2.292,0,0,0,6,11.326V22.244a2.292,2.292,0,0,0,2.375,2.184h14.25A2.292,2.292,0,0,0,25,22.244V11.326A2.292,2.292,0,0,0,22.625,9.142ZM11.819,6.959A3.545,3.545,0,0,1,15.5,3.574a3.545,3.545,0,0,1,3.681,3.385V9.142H11.819ZM22.625,22.244H8.375V11.326h14.25Z" transform="translate(-5.5 -1)"/></svg>