<svg xmlns="http://www.w3.org/2000/svg" width="751.786" height="555.914" viewBox="0 0 751.786 555.914"><defs><style>.a{fill:#13375b;}.b{fill:#184655;}.c{fill:#96d9c9;}.d{fill:#f7cc7f;}.e,.t,.u,.v{fill:#f47458;}.f{fill:#3c8f7c;}.g{fill:#b75742;}.h{fill:#f7a491;}.i{fill:#466eb6;}.j{fill:#355389;}.k{fill:#f48c7f;}.l{fill:#fae0b2;}.m{fill:#ffd09f;}.n{fill:#ffb769;}.o{fill:#f70;}.p{fill:#fff;}.q{fill:#50bfa5;}.r{fill:#9bc1f9;}.s{fill:#f8927c;}.t{stroke:#c95036;}.u{stroke:#d66d58;}.v{stroke:#d15d45;}.w{fill:#86b1f2;}</style></defs><g transform="translate(-15.29 -189.87)"><g transform="translate(15.29 189.87)"><rect class="a" width="241.635" height="3.377" transform="translate(175.354 546.15)"/><g transform="translate(0 0)"><path class="b" d="M832.643,1793.847a6.081,6.081,0,1,1-6.078-6.177A6.081,6.081,0,0,1,832.643,1793.847Z" transform="translate(-622.605 -1243.917)"/><path class="b" d="M966.657,1793.847a6.078,6.078,0,1,1-6.078-6.177,6.078,6.078,0,0,1,6.078,6.177Z" transform="translate(-711.994 -1243.917)"/><path class="b" d="M1166.757,1793.847a6.078,6.078,0,1,1-6.078-6.177A6.078,6.078,0,0,1,1166.757,1793.847Z" transform="translate(-845.457 -1243.917)"/><path class="b" d="M1426.837,1793.847a6.078,6.078,0,1,1-6.078-6.177A6.078,6.078,0,0,1,1426.837,1793.847Z" transform="translate(-1018.926 -1243.917)"/><rect class="c" width="241.635" height="13.044" transform="translate(175.354 539.204)"/><path class="a" d="M528.08,1826.3h0a2.428,2.428,0,0,0,2.664,2.1h660.942a2.436,2.436,0,0,0,2.664-2.1h0a2.428,2.428,0,0,0-2.664-2.1H530.718A2.413,2.413,0,0,0,528.08,1826.3Z" transform="translate(-442.564 -1289.262)"/><path class="c" d="M2359.9,405.464l7.992.816a1.239,1.239,0,0,1,.962.629l3.843,6.927a1.252,1.252,0,0,0,2.228-.09l3.253-7.21a1.236,1.236,0,0,1,.906-.706l7.889-1.452a1.215,1.215,0,0,0,.6-2.111L2381.606,397a1.209,1.209,0,0,1-.4-1.066l1.032-7.823a1.239,1.239,0,0,0-1.855-1.216l-6.944,3.953a1.255,1.255,0,0,1-1.156.047l-7.25-3.383a1.235,1.235,0,0,0-1.748,1.359l1.665,7.716a1.2,1.2,0,0,1-.313,1.1l-5.511,5.735a1.215,1.215,0,0,0,.776,2.051Z" transform="translate(-1663.612 -330.491)"/><path class="d" d="M2372.381,672.007l7.992.813a1.247,1.247,0,0,1,.962.629l3.82,6.93a1.252,1.252,0,0,0,2.225-.09l3.257-7.213a1.239,1.239,0,0,1,.906-.706l7.889-1.452a1.216,1.216,0,0,0,.6-2.108l-5.971-5.272a1.2,1.2,0,0,1-.4-1.066l1.033-7.826a1.239,1.239,0,0,0-1.855-1.216l-6.947,3.956a1.269,1.269,0,0,1-1.152.047l-7.243-3.387a1.235,1.235,0,0,0-1.745,1.359l1.665,7.716a1.218,1.218,0,0,1-.313,1.1l-5.515,5.735a1.219,1.219,0,0,0,.792,2.055Z" transform="translate(-1671.927 -508.269)"/><path class="e" d="M2360.053,1758.91s-4.523,6.967-4.909,9.684-2.794,8.872-5.455,9.261c-.606.09-10.963.849-10.89-.446.06-1,3.806-2.4,5.548-3.6,3-2.078,7.679-19.005,7.679-19.005S2359.846,1756.742,2360.053,1758.91Z" transform="translate(-1650.28 -1242.974)"/><path class="e" d="M2040.763,1804.871H2012.08a1.177,1.177,0,0,1-.709-1.955c.9-.9,4.276-1.815,7.9-3.483,6.354.666,20.284-3.107,21.286-4.562C2041.136,1797.784,2041.333,1804.747,2040.763,1804.871Z" transform="translate(-1431.692 -1269.7)"/><rect class="f" width="109.616" height="13.044" transform="translate(292.387 518.223)"/><path class="g" d="M2182.246,942.782c-2.331-5.758-4.612-11.556-2-18.622a17.653,17.653,0,0,1,12.525-11.02c16.415-4.293,16.161,6.787,39.906,4.466,24.56-2.4,34.424,24.31,32.153,33.135-10.873,42.293-59.69,21.676-66.3,14.653C2193.615,960.192,2183.738,946.488,2182.246,942.782Z" transform="translate(-1543.753 -680.936)"/><path class="d" d="M2280.588,1065.889s2.641-.123,9.764,3.134,22.392,24.427,22.392,24.427l-12.435,9.681L2279,1089.193S2276.3,1065.889,2280.588,1065.889Z" transform="translate(-1609.835 -783.482)"/><path class="h" d="M2220.036,1007.5s.25,1.778.633,4.226c.7,4.482,1.056,11.835,1.958,14.07.789,1.968-6.078,20.581-8.326,15.392-3.963-9.092-3.846-11.826-4.052-14.247s-.846-10.6-1.276-16.072l-.4-5.115Z" transform="translate(-1563.42 -743.378)"/><path class="e" d="M2208.9,1010.745c-.22-2.894-.379-5.015-.379-5.015l11.482,1.755s.29,1.665.609,4.036C2215.956,1014.209,2211.77,1013.356,2208.9,1010.745Z" transform="translate(-1563.387 -743.358)"/><path class="h" d="M2204.849,932.74a13.036,13.036,0,0,1,7.327,5.285c2.794,4.263,4.709,16.811-4.492,22.672s-16.355-2.431-16.474-10.513S2192.817,931.3,2204.849,932.74Z" transform="translate(-1551.837 -694.588)"/><path class="h" d="M2183.986,968.824c.783,1.948,2.331,3.16,3.477,2.7s1.422-2.411.636-4.363-2.331-3.16-3.477-2.7S2183.2,966.872,2183.986,968.824Z" transform="translate(-1546.725 -715.77)"/><path class="h" d="M2254.06,976.39c-.666,2.1-.057,4.169,1.362,4.622s3.114-.889,3.78-3,.057-4.169-1.362-4.619S2254.726,974.289,2254.06,976.39Z" transform="translate(-1593.581 -721.734)"/><path class="i" d="M1433.55,1683.944s57.862,1.975,70.55-4.04.383-13.96.383-13.96,27.491-6.521,29.306-15.1-11.386-7.233-11.386-7.233,26.335-18.406,22.559-24.057c-7.033-10.527-36.809,8.016-36.809,8.016s9.914-9.861,2.924-13.524c-10.537-5.521-25.839,21.04-25.839,21.04s.766-6.43-7.326-6.827C1463.339,1627.554,1433.55,1683.944,1433.55,1683.944Z" transform="translate(-1046.496 -1148.59)"/><path class="j" d="M1487.076,1614.187c8.106.393,7.846,11.456,7.846,11.456s15.412-31.384,25.949-25.859c6.993,3.663-.6,16.874-.6,16.874s27.341-17.074,34.374-6.547l-106.566,60.35C1451.527,1663.856,1473.5,1613.524,1487.076,1614.187Z" transform="translate(-1056.187 -1139.146)"/><path class="i" d="M1416.828,1549.324s49.783-34.634,56.946-49.866-6.554-13.96-6.554-13.96,20.481-26.974,15.619-36.3-16.045,1.975-16.045,1.975,10.36-37.085,2.561-39.443c-14.526-4.386-28.733,42.58-28.733,42.58s-5.428-25.976-14.683-24.054c-13.957,2.914-.03,41.328-.03,41.328s-4.116-12.515-11.919-6.71C1399.994,1475.3,1416.828,1549.324,1416.828,1549.324Z" transform="translate(-1029.741 -1013.96)"/><path class="j" d="M1379.117,1465.332a19.8,19.8,0,0,0,10.553-12.9s.06-21.723,14.017-24.643c9.258-1.932,15.735,15.519,15.735,15.519s14.15-36.109,28.676-31.724l-52.677,137.007C1393.583,1539.855,1368.647,1470.288,1379.117,1465.332Z" transform="translate(-1008.484 -1013.806)"/><path class="j" d="M545.661,1262.381s-101.944-65.941-118.338-97.038,7.11-31.37,7.11-31.37-45.291-54.329-36.046-74.233,33.675,2.594,33.675,2.594-25.143-76.411-9.091-82.069c29.892-10.537,61.708,71.316,61.708,71.316s-5.055-34.634,14.443-31.49c29.412,4.752,20.191,80.947,20.191,80.947s6.4-28.916,23.235-17.543C572.759,1103.9,545.661,1262.381,545.661,1262.381Z" transform="translate(-355.232 -725.748)"/><path class="i" d="M601.95,1072.361c-13.111-9.181-29.339,11.945-29.339,11.945s7.659-59.467-21.759-64.216c-19.5-3.15-14.443,31.49-14.443,31.49s-31.823-81.853-61.718-71.316l122.954,280.888C600.648,1242.75,627.925,1090.55,601.95,1072.361Z" transform="translate(-406.954 -725.748)"/><path class="j" d="M460.844,1558.431s-93.648.46-116.327-12.6-4.046-23.644-4.046-23.644-50.106-16.2-52.187-32.413,22.226-11.745,22.226-11.745-46.186-38.1-38.317-48.038c14.633-18.512,67.19,20.371,67.19,20.371s-16.947-19.8-3.42-25.563c20.394-8.7,44.874,42.933,44.874,42.933s-.466-12.062,14.653-11.589C422.59,1456.98,460.844,1558.431,460.844,1558.431Z" transform="translate(-271.29 -1022.207)"/><path class="i" d="M398.912,1429.906c-15.116-.47-16.281,20.121-16.281,20.121s-23.977-60.609-44.361-51.9c-13.524,5.765-1.4,31.437-1.4,31.437s-48.254-35.79-62.874-17.277l189.008,127.966C457.573,1527.473,424.241,1430.695,398.912,1429.906Z" transform="translate(-273.098 -1004.508)"/><path class="k" d="M1719.9,339.166l-10.007-.806-1.365,9.255-9.894-.36-2.395,8.685-7.449.942.476,3.77,9.961-1.259,2.271-8.232,10.293.376,1.342-9.1,9.072.733Z" transform="translate(-1216.736 -298.235)"/><path class="k" d="M492.817,660.229l-5.012,3.507-6.534-7.443-7.959,4.223-5.8-4.766-2.414,2.934,7.756,6.377,7.543-4,6.8,7.739,7.54-5.275Z" transform="translate(-400.558 -509.928)"/><path class="d" d="M903.654,236.614l7.992.816a1.239,1.239,0,0,1,.962.629l3.843,6.927a1.249,1.249,0,0,0,2.231-.1l3.257-7.213a1.229,1.229,0,0,1,.906-.7l7.889-1.455a1.212,1.212,0,0,0,.6-2.108l-5.991-5.265a1.209,1.209,0,0,1-.4-1.066l1.032-7.826a1.239,1.239,0,0,0-1.855-1.212l-6.947,3.953a1.265,1.265,0,0,1-1.156.047l-7.25-3.383a1.239,1.239,0,0,0-1.748,1.359l1.665,7.716a1.2,1.2,0,0,1-.31,1.092l-5.5,5.741a1.219,1.219,0,0,0,.776,2.048Z" transform="translate(-692.327 -217.872)"/><path class="h" d="M2187.1,1291.62c-.35.146,4.636,6.574,9.495,11.12,3.919,4.915,7.593,10.733,8.858,17.077,1.922,9.657.333,57.313,2,60.7,14.376,14.057,24.787,49.327,27.707,60.087a11.535,11.535,0,0,0,3.33,5.461h0l-.639,12.159-7.143,6.58s1.588-9.911-1.585-17.26c0,0-36.2-54.812-38.344-59-4.1-11.932-19.052-73.064-19.052-73.064l-3.47-14.05Z" transform="translate(-1536.528 -934.041)"/><path class="h" d="M2065.668,1333.887s-23.311,49.846-23.461,58.611c-.126,7.513,4.076,49.663,2.9,84.76-.043,1.269-1.648,2.954-4,4.023-1.315.6-7.513,3.64-7.513,3.64l-1.022,2.071,21.863-1.559.446-5.068-.133-.9s8.7-52.507,7.813-67.356c-.14-2.331-1.272-16.3-1.272-16.3l26.309-50.765-16.538-21.726Z" transform="translate(-1446.038 -955.185)"/><path class="a" d="M2046.27,1331.544l45.757-66.1a45.064,45.064,0,0,0,8.509,2.721c6.56,1.265,13.131,1.062,19.771.846a5.11,5.11,0,0,0,.04.649c.763,5.448,7.992,13.887,9.485,30.425,1.692,18.772.666,51.381.093,53.523C2099.506,1349.9,2054.9,1340.6,2046.27,1331.544Z" transform="translate(-1455.169 -916.58)"/><path class="h" d="M2023.984,1097.135c1.156,2.121,2.208,4.739,2.368,4.625.256-.187-1.359-3.04-2.5-5.218s-.27-12.2.789-5.015,7.992,12.655,8.209,10.467,3.733,5.6,3.723,7.083a1.822,1.822,0,0,0,1.2,1.725l18.25,6.64,11.919-20.757,13.477,2.874s-10.843,28.2-20.084,32.456c-4.213,1.938-24.031-11.719-31.637-18.4C2023.878,1108.53,2022.829,1095.013,2023.984,1097.135Z" transform="translate(-1439.86 -798.88)"/><path class="d" d="M2141.231,1072.612c-4.759,2.268-16.9,30.441-16.9,30.441l15.615,9.571,4.922-14.32S2147.085,1069.811,2141.231,1072.612Z" transform="translate(-1507.234 -787.838)"/><path class="l" d="M2164.91,1137.576c7.326,3.9,38.66,5.661,38.66,5.661.7-7.326,3.417-32.916,5.049-48.684,2.051-10.99-1.332-14.123-3.567-30.511,0-.11-11.375-.9-11.375-.9l-11.822.29s-10.287.829-13.557,2.974c-.226.146-1.529,18.669-.513,31.79.7,8.948,1.712,16.168,1.645,22.082C2169.336,1128.885,2164.91,1137.576,2164.91,1137.576Z" transform="translate(-1534.3 -781.649)"/><path class="l" d="M2164.219,1109.735c.23,6.993,9.258,13.737,22.086,13.737s23.231-5.661,23.231-12.678-8.522-16.854-21.35-16.854S2163.922,1100.86,2164.219,1109.735Z" transform="translate(-1533.835 -802.193)"/><rect class="m" width="16.165" height="1.272" transform="translate(572.124 277.162) rotate(119.13)"/><rect class="n" width="16.165" height="0.739" transform="translate(572.121 277.161) rotate(119.13)"/><rect class="m" width="15.808" height="1.272" transform="translate(577.449 280.14) rotate(119.13)"/><rect class="n" width="15.808" height="0.946" transform="translate(577.45 280.14) rotate(119.13)"/><rect class="m" width="15.808" height="1.272" transform="translate(583.006 283.234) rotate(119.13)"/><rect class="n" width="15.808" height="0.776" transform="translate(583.007 283.233) rotate(119.13)"/><path class="e" d="M2206.346,1212.118c-5.025-4.559-8.162-14.037-10.04-17.863,0,0-2.451-5-9.821-5.112a21.8,21.8,0,0,1-19.315-12.941c-3.747-8.439,5.361-21.143,5.361-21.143l.4-.709s6.014-14.43,15.162-15.682a21.806,21.806,0,0,1,21.167,9.621c3.973,6.207,9.515,5.661,9.515,5.661,4.236-.413,13.95-2.734,20.47-.856a23.18,23.18,0,0,1,13.89,11.922c3.207,6.158,3.747,14.586-.873,25.166-.246.57-2.684,5.548-3.5,6.9-.719,1.4-3.663,6.091-4.023,6.6-6.574,9.491-14.023,13.467-20.947,13.987A23.213,23.213,0,0,1,2206.346,1212.118Z" transform="translate(-1535.204 -831.891)"/><path class="o" d="M1946.479,1035.69a13.754,13.754,0,0,0-7.356,13.074v.11l22.672,11.276c.966-.31,4.243.459,4.243.459l4.572-8.2s-2.381-2.381-2.624-3.367l-21.513-13.351Zm16.614,17.1-12.545-7.709a2.208,2.208,0,0,1-.626-3.051h0a2.185,2.185,0,0,1,3-.836l12.545,7.709a2.215,2.215,0,0,1,.626,3.05h0a2.188,2.188,0,0,1-3,.823Zm-16.674-4.476h0a2.214,2.214,0,0,1,2.924-1.076l13.154,6.617a2.181,2.181,0,0,1,.859,2.977h0a2.211,2.211,0,0,1-2.924,1.072l-13.154-6.617a2.181,2.181,0,0,1-.859-2.974Z" transform="translate(-1383.685 -763.341)"/><path class="b" d="M2091.632,1129.286a8.972,8.972,0,0,0-.856,6.747L2020,1094.092l4.572-8.2,73.354,38.893A8.878,8.878,0,0,0,2091.632,1129.286Z" transform="translate(-1437.647 -796.823)"/><path class="b" d="M2018.465,1064.95l.023-.043a.7.7,0,0,0-.27-.956l-2.641-1.472a.7.7,0,0,0-.956.27l-.027.046a.706.706,0,0,0,.273.956l2.641,1.472A.706.706,0,0,0,2018.465,1064.95Z" transform="translate(-1433.984 -781.148)"/><path class="b" d="M2001.7,1055.6l.027-.043a.706.706,0,0,0-.273-.956l-2.641-1.472a.7.7,0,0,0-.956.273l-.023.043a.7.7,0,0,0,.27.956l2.641,1.472A.7.7,0,0,0,2001.7,1055.6Z" transform="translate(-1422.799 -774.915)"/><path class="b" d="M1986.077,1046l.027-.043a.706.706,0,0,0-.273-.956l-2.641-1.472a.7.7,0,0,0-.956.27l-.023.047a.7.7,0,0,0,.27.956l2.641,1.472A.7.7,0,0,0,1986.077,1046Z" transform="translate(-1412.383 -768.511)"/><path class="b" d="M1961.767,1089.692l.027-.047a.706.706,0,0,0-.273-.956l-2.641-1.469a.7.7,0,0,0-.956.27l-.023.047a.7.7,0,0,0,.27.956l2.641,1.469a.7.7,0,0,0,.956-.27Z" transform="translate(-1396.169 -797.651)"/><path class="b" d="M1978,1098.124l.027-.043a.706.706,0,0,0-.273-.956l-2.641-1.472a.7.7,0,0,0-.956.273l-.023.043a.7.7,0,0,0,.273.956l2.637,1.472a.7.7,0,0,0,.956-.273Z" transform="translate(-1406.995 -803.276)"/><path class="b" d="M1994.329,1107.223l.027-.043a.7.7,0,0,0-.273-.956l-2.641-1.472a.7.7,0,0,0-.956.273l-.023.043a.7.7,0,0,0,.273.956l2.638,1.472a.7.7,0,0,0,.956-.273Z" transform="translate(-1417.887 -809.345)"/><path class="c" d="M2020.02,1094.092l4.572-8.2.929.493-4.6,8.246Z" transform="translate(-1437.661 -796.823)"/><path class="c" d="M2038.9,1104.675l4.739-8.505.393.206-4.752,8.525Z" transform="translate(-1450.253 -803.68)"/><path class="c" d="M2056.2,1114.382l4.9-8.782.393.207-4.906,8.8Z" transform="translate(-1461.792 -809.969)"/><path class="c" d="M2070.94,1122.638l5.025-9.018.389.206-5.035,9.038Z" transform="translate(-1471.623 -815.319)"/><path class="c" d="M2085.67,1130.895l5.158-9.255.39.207-5.168,9.275Z" transform="translate(-1481.448 -820.668)"/><path class="c" d="M2099.26,1138.511l5.278-9.471.389.206-5.288,9.491Z" transform="translate(-1490.512 -825.604)"/><path class="c" d="M2112.84,1146.121l5.4-9.691.393.21-5.411,9.708Z" transform="translate(-1499.57 -830.533)"/><path class="c" d="M2124.33,1152.564l5.5-9.874.39.207-5.511,9.894Z" transform="translate(-1507.234 -834.708)"/><path class="c" d="M2135.82,1159l5.608-10.061.39.21-5.615,10.077Z" transform="translate(-1514.897 -838.876)"/><path class="c" d="M2146.93,1165.227l5.7-10.237.393.21-5.714,10.254Z" transform="translate(-1522.307 -842.912)"/><path class="c" d="M2157.33,1171.053l5.8-10.4.39.21-5.808,10.42Z" transform="translate(-1529.244 -846.687)"/><path class="c" d="M2167.15,1176.56l5.885-10.56.393.207-5.9,10.58Z" transform="translate(-1535.794 -850.255)"/><rect class="p" width="0.696" height="2.028" transform="matrix(-0.487, 0.873, -0.873, -0.487, 570.46, 280.661)"/><rect class="p" width="0.476" height="1.808" transform="translate(567.072 286.629) rotate(119.2)"/><rect class="p" width="0.533" height="2.178" transform="translate(575.807 283.808) rotate(119.15)"/><rect class="p" width="0.729" height="1.955" transform="translate(572.65 289.502) rotate(119.15)"/><rect class="p" width="0.599" height="1.878" transform="translate(581.267 286.497) rotate(119.12)"/><rect class="p" width="0.356" height="1.732" transform="translate(576.963 290.199) rotate(119.389)"/><path class="c" d="M2175.63,1181.317l5.961-10.7.39.206-5.971,10.717Z" transform="translate(-1541.45 -853.337)"/><path class="h" d="M2061.347,1143.012l-18.25-6.64a2.22,2.22,0,0,1-1.2-1.725c-1.449-5.278-9.967-7.5-10.224-7.326a11.877,11.877,0,0,0,3.706,11.9c7.746,6.534,27.068,20.294,31.281,18.356Z" transform="translate(-1445.18 -824.45)"/><path class="q" d="M2078.586,294.173h0c-2.664-.17-8.212-2.741-11.529-4.279-3.507-1.625-3.873-1.795-4.549-1.332-1.455.873-1.355.883,6.347,26.958-8.146-1.229-15.862,9.681-10.656,15.292,5.508,5.941,17.893-2.175,15.882-10.583h0c-.2-.8-3.537-12.135-6.164-21.26,5.035,3.024,12.7,1.515,13.93-3.4l.416-1.665C2080.294,294.2,2081.19,294.35,2078.586,294.173Z" transform="translate(-1461.996 -264.871)"/><path class="c" d="M1387.73,243.133c.093-.859.739-10.257,1.545-21.8-12.2-.366-11.8-.19-22.645-3.463-.433,5.928-.836,11.889-1.142,16.684-5.521-3.014-13.677,2.817-11.476,8.059,2.378,5.661,13.211,3.044,13.953-3.387h0c.067-.589.39-5.818.949-14.05l17.031,2.514c-.173,2.544-.386,5.878-.693,10.766-5.491-3-13.687,2.8-11.476,8.062,1.219,2.9,5.268,3.97,9.025,2.391C1385.523,247.765,1387.464,245.5,1387.73,243.133Z" transform="translate(-993.2 -217.87)"/><path class="r" d="M565.181,342.481l-.313,8.092,7.346,3.77-.992,9.045,9.061,1.6-.669,10.277,8.162,2.508.972,9.994-3.783.366-.726-7.47-8.615-2.644.646-9.881-9.215-1.632,1.1-9.981-7.173-3.683.286-7.5-5.215-1.435,1.006-3.663Z" transform="translate(-461.22 -299.495)"/><path class="i" d="M1116.468,1488.285h-5.188v-17.141a2.594,2.594,0,0,1,2.594-2.594h0a2.594,2.594,0,0,1,2.594,2.594Z" transform="translate(-831.548 -1052.05)"/><path class="i" d="M1105.858,1514.81H1090.07a11.575,11.575,0,0,0-3.42,8.232,11.324,11.324,0,1,0,22.645,0,11.563,11.563,0,0,0-3.437-8.232Z" transform="translate(-815.12 -1082.905)"/><path class="b" d="M1271.7,1424.362a5.274,5.274,0,0,1,.306-1.172c-2.814-2.055-4.915-5.142-7.326-7.719a16.526,16.526,0,0,0-1.092,4.842c-1.109,13.987,12.751,28.789,13.254,51.348.506,22.752-16.075,40.515-36.872,31.144-7.66-3.45-16.774-.613-17.88,9.324-1.665,14.966,19.848,19.7,33.052,15.375,26.711-8.752,42.893-38.63,34.268-68.712C1285.115,1443.813,1270.638,1432.384,1271.7,1424.362Z" transform="translate(-905.394 -1016.647)"/><path class="f" d="M1007.583,1617.621H794.995L782.14,1544.6h225.443Z" transform="translate(-612.018 -1102.774)"/><path class="c" d="M782.14,1544.6l12.854,73.021h116.74l13.907-73.021Z" transform="translate(-612.018 -1102.774)"/><rect class="a" width="241.635" height="3.377" transform="translate(160.368 438.449)"/><rect class="q" width="241.635" height="3.167" transform="translate(160.368 435.282)"/><rect class="e" width="207.797" height="7.729" transform="translate(179.051 423.466)"/><path class="d" d="M896.3,691.783c-29.539-16.854-82.635-48.671-125.714-93.8S732.844,490,732.844,490c-38.873,3.274-48.954,85.329-48.954,85.329-46.506,25.456-30.195,97.208-30.195,97.208s-6.247,5.818-15.619,36.362-2.3,62.274-2.3,62.274C668,713.532,789.644,706.928,842.85,711.457c52.617,4.476,85.436,12.1,87.464,42.1,2,29.639-52.4,41.427-53.406,41.627,1.549,1.509,1.412,4.812,2.311,7.027,5.328-.849,69.521-7.027,64.273-55.857C940.521,718.514,920.32,705.486,896.3,691.783Z" transform="translate(-512.689 -399.376)"/><path class="a" d="M1315.158,1391.819a15.086,15.086,0,1,1-15.082-15.319A15.2,15.2,0,0,1,1315.158,1391.819Z" transform="translate(-947.409 -990.655)"/><path class="a" d="M1325.19,1460.63l1.609,9.6,1.612-9.6Z" transform="translate(-974.222 -1046.768)"/><path class="l" d="M906.339,715.875,911.1,720.6c.083.08,5.285,4.825,4.962,4.532a198.623,198.623,0,0,0,33.075,23.208c-24.906-12.375-40.871-26.835-39.713-25.885l-5.085-4.546c-42.124-40.319-40.282-78.063-40.828-80.554a3.81,3.81,0,1,1,7.613.22C869.954,656.674,879.841,687.675,906.339,715.875Z" transform="translate(-666.29 -495.117)"/><path class="l" d="M880.7,915.322l-128.382-43.5c-4.769-1.615-2.331-8.832,2.444-7.213C754.82,864.633,749.465,862.471,880.7,915.322Z" transform="translate(-590.406 -649.077)"/><path class="l" d="M783.44,1062.653c33-3.82,52.827.719,59.251,1.632-7.326-.533-33.768-5.831-78.043,5.255-42.626,10.81-72.681,30.731-71.789,30.158-4.233,2.724-8.362-3.663-4.123-6.4C688.783,1093.26,748,1066.615,783.44,1062.653Z" transform="translate(-548.533 -780.319)"/><path class="s" d="M1325.407,712.689a8.238,8.238,0,0,0,.073-3.447,59.854,59.854,0,0,0-1.665-7.659c-.3-.666,8.815-4.769,8.815-4.769s15.092-2.578,17.151-4.542,3.876-2.887,3.03-1a42.8,42.8,0,0,1-6.327,9.344c-.9.753-12.355,5.118-12.568,5.145s.739,7.43.739,7.43Z" transform="translate(-973.3 -532.933)"/><path class="j" d="M1255,744.4s-10.027-.5-10.09.5c-1.392,22.222-1.212,29.492-1.625,29.772-1.405.946-25.033-15.3-28.713-16.1a14.9,14.9,0,0,0-5.348.19c-4.193.626-2.787.356-5,.729h0l-.187.033.493,3.956c5.245,3.7,23.761,67,24.67,66.85,1-.17,23.1,2.684,22.505.922-.093-.286-15.985-10.417-22.112-27.028-2.058-5.575-3.473-11.676-4.862-16.984,5.049,1.822,24.743,8.772,27.551,7.213C1261.016,789.588,1255,744.4,1255,744.4Z" transform="translate(-893.417 -568.97)"/><path class="h" d="M1508.82,1059.089s21.806,13.264,22.8,15.955c1.432,3.876,19.082-3.537,14.576-3.826-1.032-.067-4.376-.506-4.662-.616-1.519-.593-21.809-19.881-21.809-19.881Z" transform="translate(-1096.7 -773.365)"/><path class="c" d="M1599.937,1108.385l-12.861.476s-3.284,3.447-10.264,4.416a16.454,16.454,0,0,0,.233,6.993c.17.633.51,2.571,1.156,2.448,2.331-.44,8.419-2.744,15.4-5.019,0,0,9.358-3.174,14.51-7.15S1599.937,1108.385,1599.937,1108.385Z" transform="translate(-1141.87 -811.552)"/><path class="t" d="M1218.6,958.054a87.65,87.65,0,0,0,30.611-5c18.18-6.59,38.374-13.088,44.851-10.287,5.212,2.258,41.121,44.654,41.121,44.654l-10.74,9.991-37.984-33.565s-40.9,20.857-50.715,20.248C1213.393,982.714,1211.009,965.277,1218.6,958.054Z" transform="translate(-900.529 -700.92)"/><path class="u" d="M1241.279,956.42l16.681,15.639-26.139,11.479L1226.41,967.6Z" transform="translate(-908.337 -710.469)"/><path class="h" d="M1388.55,1184.12s1.975,24.237,1.911,28.39,12.175,15.109,10.29,11.01c-.433-.943-1.635-4.093-1.665-4.392-.2-1.619.543-29.639.543-29.639Z" transform="translate(-1016.482 -862.341)"/><path class="c" d="M1390.459,1287.516l-6.527-11.093s-4.592-1.252-8.765-6.933a16.438,16.438,0,0,0-6.054,3.533c-.479.449-3.736,3.483-3.417,4.056,1.179,2.108,6.6,6.277,12.528,10.83a143.761,143.761,0,0,0,14.2,7.826C1398.372,1298.379,1390.459,1287.516,1390.459,1287.516Z" transform="translate(-1001.224 -919.281)"/><path class="v" d="M1271.262,975.706c-5.918-6.2-47.918-7.783-47.918-7.783l-14.12-20.734-23.564,18.7s4.942,19.928,7.493,25.106c3.4,6.9,20.524,5.242,30.948,3.9,9.591-1.239,27.361-1.362,27.361-1.362l.28,53.036s11.989,1.269,15.2.453C1267.306,1046.922,1278.625,983.426,1271.262,975.706Z" transform="translate(-881.158 -704.313)"/><path class="c" d="M1174.848,790.12l-14.253,2.488s-.313.157-.41.187c-1.142.353,4.879,42.03,7.773,57.519s5.788,21.8,5.788,21.8,19.045-5.761,24.74-8.788c2.364-1.255,7.47-9.464,7.47-9.464a63.359,63.359,0,0,1-11.779-20.524c-3.6-10.034-8.708-27.974-10.843-31.6C1178.434,793.41,1174.848,790.12,1174.848,790.12Z" transform="translate(-864.072 -599.55)"/><path class="h" d="M1158.43,753.431l1.092,12.715s11.186,14.9,15.688,12.1c3.776-2.348-1.215-14.1-1.215-14.1s-1.026-2.707-2.368-5.8a23.429,23.429,0,0,1-1.952-6.307C1169.276,747.706,1158.43,753.431,1158.43,753.431Z" transform="translate(-862.996 -573.071)"/><path class="b" d="M1160.583,668.77s5.578,6.57,6.66,12.531a30.77,30.77,0,0,1,.28,10.207l-17.354-16.335Z" transform="translate(-857.487 -518.612)"/><path class="k" d="M1196.643,695.536c.463,2.078-.14,4-1.332,4.249s-2.561-1.2-3.024-3.274.14-3.976,1.332-4.246S1196.18,693.461,1196.643,695.536Z" transform="translate(-885.474 -534.262)"/><path class="h" d="M1136.382,683.869c-.36-.033,1.748,17.437,7.3,20.947s14.41,2.824,16.491-1.622c2.3-4.919-2.588-23.012-10.587-26.025S1136.382,683.869,1136.382,683.869Z" transform="translate(-848.264 -523.827)"/><path class="b" d="M1113.94,655.952c-3.464,3.846-5.042,6.547-6.943,12.885-2.331,7.793,4.955,14.713,10.657,17.127s6.61,6.108,6.61,6.108l-.063-2.354a6.5,6.5,0,0,0-1.3-3.84c-.57-.919-2.428-4.079-3.1-4.9-1.782-2.141-2.138-2.611-1.665-4.905.373-1.768-.736-5.435-.183-8.326l7.02-2.408s4.379-1.618,6.327-4.516C1136.975,652.5,1123.054,645.622,1113.94,655.952Z" transform="translate(-828.393 -506.593)"/><path class="h" d="M1137.841,727.3c1.116,1.812,1.166,3.806.11,4.456s-2.811-.3-3.923-2.108-1.166-3.806-.113-4.456S1136.726,725.486,1137.841,727.3Z" transform="translate(-846.141 -556.106)"/><path class="s" d="M979.89,559.532c1.219,3.267,3.33,8.409,3.33,8.409.057,1.475.333,7.606.719,15.122l10.437-5.685s-1.575-12.132-1.172-12.931c.333-.666,1.126.023,3.913-5.182a9.408,9.408,0,0,0,.693-4s-.163-3.077-.879-3.28a1.435,1.435,0,0,0-1.638.9c-.183.56.027,1.778-.16,2.331a3.827,3.827,0,0,1-2.368,1.425c-.673.043-1-9.031-1-9.031s.07-2.594.16-3.45c.077-.733.476-2.894.476-2.894s.4-3.117-.566-3.237c-.569-.07-1.688,2.558-2.331,5.282-.709,2.931-.946,5.994-1.249,5.994-.709,0-.926-5-.926-5a15.866,15.866,0,0,0,.286-3.4c.5-1.385.666-3.86-.529-3.923a20.556,20.556,0,0,0-1.382,3.247s-.333,2.238-.573,3.294c-.406,1.858-.163,4.689-.333,5.971-.143,1.066-.436.666-.543.726a21.55,21.55,0,0,1-.163-3.383,20,20,0,0,1-.137-3.28,23.87,23.87,0,0,0,.063-3.49c-.117-2.571-1.688-2.121-1.968.276-.107.916-.213,1.908-.333,2.917-.41,3.926.053,7.606-.356,7.686-.53.1-.972-6.644-.972-6.644s-1.262-3.613-1.665-.073a30.193,30.193,0,0,0,.043,7.5C978.964,552.7,978.674,556.265,979.89,559.532Z" transform="translate(-742.994 -430.717)"/><path class="j" d="M1044.817,691.6s-14.283,1.019-18.146-.206c-2.331-.743-22.366-13.3-22.366-13.3l-4.472-39.449-12.968.549s-1.492,44.365,1.382,48.854c2.967,4.642,32.12,21.746,38.514,29.912,3.683,4.706,14.8,68.375,15.848,68.882,7.35,2.781,32.636,8.352,31.876,6.227C1053.405,734.343,1044.817,691.6,1044.817,691.6Z" transform="translate(-748.307 -498.522)"/><path class="s" d="M1343,699.314s3.753-2.165,4.772-2.644,4.329-1.515,4.329-1.515,4.619-6.028,5.944-6.327-2.371,6.261-2.371,6.261l-1.629,2s2.664-2.9,3.187-3.33,4.209-7.373,5.391-7.083-1.332,5.168-2.518,7.746-7.782,4.865-7.782,4.865Z" transform="translate(-986.101 -530.547)"/><path class="w" d="M1166.5,551.051c-.1-.107-9.864-10.786-28.546-17.36-26.641-9.388-72.365.9-85.919-28.526a26.2,26.2,0,0,1-2.537-9.531.476.476,0,0,1,.949-.02h0a25.8,25.8,0,0,0,2.471,9.195c13.321,28.773,58.555,18.549,85.366,27.974,13.4,4.732,24.424,12.628,28.936,17.623a.483.483,0,1,1-.719.646Z" transform="translate(-790.342 -402.835)"/><path class="w" d="M1181.42,540.435c-.37-.4-9.245-9.937-25.892-15.828-18.136-6.441-46.033-4.865-62.794-12.368-10.184-4.559-15.166-11.083-17.547-15.752a24.081,24.081,0,0,1-2.767-9.2.476.476,0,0,1,.949-.033,23.579,23.579,0,0,0,2.687,8.848c2.331,4.519,7.157,10.836,17.064,15.272,16.591,7.426,44.431,5.844,62.724,12.342,16.867,5.968,25.9,15.652,26.275,16.081a.474.474,0,0,1-.7.639Z" transform="translate(-805.629 -397.26)"/><path class="w" d="M1196.334,529.813c-3.956-4.309-12.135-10.324-23.241-14.29-17.52-6.284-41.334-6.114-56.3-12.395-10.657-4.469-15.918-10.79-18.453-15.3a22.6,22.6,0,0,1-3-8.888.476.476,0,0,1,.949-.05h0a21.59,21.59,0,0,0,2.891,8.522c2.464,4.369,7.579,10.49,17.963,14.843,7.56,3.174,17.35,4.662,27.717,6.247,9.794,1.492,19.918,3.037,28.543,6.131,11.266,4.02,19.588,10.147,23.618,14.543a.473.473,0,0,1-.686.639Z" transform="translate(-820.916 -391.684)"/><path class="w" d="M1211.3,519.193c-16.937-18.466-51.251-17.727-70.4-25.169-11.156-4.329-16.694-10.453-19.372-14.819a20.454,20.454,0,0,1-3.19-8.619.476.476,0,0,1,.949-.057,19.866,19.866,0,0,0,3.084,8.232c2.6,4.226,7.992,10.147,18.872,14.376,19.085,7.416,53.546,6.66,70.756,25.416a.474.474,0,0,1-.7.639Z" transform="translate(-836.257 -386.109)"/><path class="i" d="M1109.478,479.668h0c-1.572-1.638-3.56-6.414-4.749-9.265-1.6-3.833-1.4-3.047-2-3.354-1.276-.256-.2.666-10.374,21.466-4.213-5.511-16.295-4.159-16.258,2.245.02,3.314,3.513,6.271,8.222,6.244,3.274-.02,6.214-1.519,7.5-3.82h0c.333-.609,4.755-9.658,8.4-16.961,1.272,4.839,6.963,8.365,10.517,6.021l1.072-.709-1.089-.686a10.068,10.068,0,0,1-1.239-1.182Z" transform="translate(-808.083 -384.048)"/><path class="i" d="M1330.664,551.172h0c-1.932-.553-5.6-3.33-7.793-5-2.331-1.755-2.558-1.942-3.13-1.7-1.209.406.043.966,1.535,21.366-5.791-2.208-14.393,4.043-11.463,8.991,3.1,5.248,13.5,1.266,13.367-5.238h0c0-.619-.666-10.99-1.129-18.1,3.214,3.027,9.092,4.629,10.78,1.216l.573-1.156A6.519,6.519,0,0,1,1330.664,551.172Z" transform="translate(-963.571 -435.654)"/><path class="i" d="M1210.563,520.742c-.023-.862-.666-10.264-1.412-21.809-12.135,1.285-11.716,1.405-22.892-.373.373,5.931.776,11.892,1.122,16.684-5.878-2.241-13.171,4.642-10.28,9.538,3.12,5.285,12.921-.26,12.788-6.73,0,0-.666-5.158-1.216-13.391l18.892.173c.173,2.544.383,7.546.739,12.432-5.844-2.228-13.987,3.8-11.1,8.715,1.6,2.707,5.755,3.22,9.265,1.149,2.541-1.5,4.153-4,4.1-6.391Z" transform="translate(-875.014 -405.085)"/><path class="h" d="M2023.467,1116.356c-.28-3.56,3.057,2.774,4.183,3.294,2.265,5.941,4.053-6.3,5.328-2.894.19.516.686,2.271,1.245,3.53.3.666,1.375,4.916,2.1,5.072l-3.463,5.844c-1.5-.779-2.8-1.332-3.86-2C2025.821,1127.259,2024.3,1120.306,2023.467,1116.356Z" transform="translate(-1439.948 -816.423)"/><path class="h" d="M2032.241,1104.078s1.529,4.276-.44,4.749c-4.772,1.152-7.2.4-8.708-4.073-1.289-3.82-1.152-7.953-.6-7.869.666.1,1.579,4.819,2.028,6.291s-2.311-8.808-.353-8.172c.666.22,2.444,7.326,2.7,8.152s-1.379-7.543-.2-7.66,2.607,7.63,3.114,8.079-2.3-8.216-.24-7.54C2030.765,1096.428,2032.241,1104.078,2032.241,1104.078Z" transform="translate(-1439.042 -802.883)"/><g transform="translate(640.258 320.29)"><path class="g" d="M2224.427,1213.35c5.994,3.33,13.777.832,17.37-5.611s1.638-14.38-4.363-17.723-13.777-.833-17.37,5.611S2218.426,1210,2224.427,1213.35Z" transform="translate(-2207.147 -1184.244)"/><path class="a" d="M2235.6,1218.445c3.9,2.171,8.948.539,11.279-3.663a8.394,8.394,0,0,0-2.834-11.512c-3.9-2.188-8.948-.543-11.283,3.643S2231.7,1216.27,2235.6,1218.445Z" transform="translate(-2216.035 -1193.425)"/><rect class="g" width="35.183" height="5.238" transform="translate(64.094 19.942) rotate(119.13)"/><path class="c" d="M2184.88,1186.5l6.044-10.846.39.21-6.054,10.863Z" transform="translate(-2184.88 -1175.65)"/><path class="c" d="M2193.55,1191.363l6.124-10.983.39.206-6.131,11Z" transform="translate(-2190.663 -1178.805)"/><path class="c" d="M2200.61,1195.316l6.184-11.1.393.21-6.2,11.113Z" transform="translate(-2195.372 -1181.366)"/><path class="c" d="M2208.05,1199.486l6.251-11.216.393.21-6.261,11.233Z" transform="translate(-2200.334 -1184.067)"/></g><path class="h" d="M2241.277,1192.8c.073.177-2.481.733-4.8,1.4s-6.124.666-5.948,1.229c.14.433,2.484.689,4.639.523-.54.233-.789.453-.5.636,1.179.753,7.922.333,14.113-2.3s42.243-22.425,38.59-28c-1.332-2.048-7.116-7.959-10.417-12.025l-9.444,7.35,4.862,5.328c-7.446,7.972-18.845,16.624-19.432,17.044-1.578,1.129-4.619.153-5.3.133-3.756-.1-8.588-.14-9.394,1.116s2.684.832,4.765,1.472-4.829,6.108-12.008,5.661.939,2.751,3.307,2.115S2241.157,1192.524,2241.277,1192.8Z" transform="translate(-1575.78 -843.091)"/></g></g></g></svg>