<svg xmlns="http://www.w3.org/2000/svg" width="855.522" height="350.715" viewBox="0 0 855.522 350.715"><defs><style>.a{fill:#2e186a;}.b{fill:#fff;}.c{fill:#fe7624;}.d{fill:#feba91;}.e{fill:#5d21d1;}.f{fill:#968bb4;}</style></defs><g transform="translate(109.3 -0.362)"><g transform="translate(-109.3 0.362)"><g transform="translate(113.634 15.703)"><path class="a" d="M159.19,202.451c-1.6-25.377-14.717-61.948-17.65-96.919,19.759-24.96-1.6-97.753-13.379-98.518C116.275,4.093,105.984,1.1,87,.2,63.532-.913,42.332,2.911,34.459,4.441,5.077,24.047-10.875,139.321,8.473,162.056c3.653,4.311,9.571,8.621,16.775,12.654-.617,9.734-1.029,19.467-1.029,28.506Z" transform="translate(0 128.39)"/><path class="b" d="M.019,34.485,4.289,0l31.9,16.2,1.184,24.543C33.054,83.5-.908,42.063.019,34.485Z" transform="translate(65.109 98.138)"/><path class="a" d="M27.237,63.987h0c-2.893,0-6.141-1.192-9.655-3.541a43.563,43.563,0,0,1-6.556-5.508,58.655,58.655,0,0,1-5.774-6.775,38.9,38.9,0,0,1-4-6.688A10.58,10.58,0,0,1,.034,36.227L4.3,1.743C4.43.733,5.07,0,5.827,0A1.193,1.193,0,0,1,6.37.134l31.9,16.2a2.121,2.121,0,0,1,1,1.816l1.183,24.543a2.791,2.791,0,0,1-.011.417,43.148,43.148,0,0,1-3.03,12.979c-1.458,3.271-3.384,5.561-5.724,6.807A9.376,9.376,0,0,1,27.237,63.987ZM7.039,4.931h0L3.079,36.911c-.11.9,1.517,4.319,4.114,7.966l.3.419A48.506,48.506,0,0,0,18.952,56.707c3.15,2.107,5.948,3.175,8.317,3.175a6.815,6.815,0,0,0,3.675-1.029,9.266,9.266,0,0,0,2.943-3.16,21.236,21.236,0,0,0,2.162-5.4,49.653,49.653,0,0,0,1.335-7.747l-.021.2L36.255,19.765,7.039,4.931Z" transform="translate(63.571 96.051)"/><g transform="translate(29.195 0)"><path class="a" d="M15.869.739S-8.573,21.458,3.211,40.994c0,0,5.3,8.2,9.622,6.6,0,0-3.19-6.953.515-10.5,0,0,1.081,20.788,13.688,16.617a39.65,39.65,0,0,1-3.345-20.232C26.315,10.4,22.4-3.433,15.869.739Z" transform="translate(64.418 32.462)"/><path class="b" d="M.26,48.235S-4.422,7.7,25.937.68c2.83-.626,22.229-4.589,25.78,17.173A238.9,238.9,0,0,1,54.238,60.4c0,.07-.309,23.152-7.05,35.945S25.474,107.958,17.6,101.631C9.677,95.3,8.236,92.037,6.023,84.528S.26,48.3.26,48.3Z" transform="translate(29.342 17.712)"/><path class="a" d="M32.546,110.415h0a23.393,23.393,0,0,1-7.561-1.291,22.3,22.3,0,0,1-6.61-3.611c-4.04-3.226-6.274-5.468-7.965-8A36.169,36.169,0,0,1,6.148,87.386l-.055-.19C5.554,85.307,4.935,82.3,4.2,78.01l-.236-1.4c-.337-2.034-.7-4.324-1.067-6.8l-.187-1.26c-.419-2.844-.853-5.929-1.291-9.171L1.064,56.7C.93,55.68.8,54.682.677,53.729L.317,50.9l-.032-.279L.278,50.5l-.042-.441c-.009-.1-.018-.213-.028-.333l-.044-.591-.041-.654A67.593,67.593,0,0,1,2.7,25.233,45.134,45.134,0,0,1,6.39,16.427a33.908,33.908,0,0,1,5.272-7.142,29.97,29.97,0,0,1,6.927-5.3A33.257,33.257,0,0,1,27.247.708,28.975,28.975,0,0,1,32.159.041C32.674.014,33.19,0,33.693,0a24.07,24.07,0,0,1,6.749.919,18.188,18.188,0,0,1,9.31,6.165A26.433,26.433,0,0,1,54.784,19.49l.138.862a206.984,206.984,0,0,1,2.111,20.6c.389,7.031.492,14.3.308,21.612v.16c-.011.657-.061,2.049-.144,3.555l-.057.979c-.183,2.953-.457,5.907-.815,8.782-1.259,10.1-3.385,18.041-6.317,23.607a20.459,20.459,0,0,1-6.6,7.558,18.808,18.808,0,0,1-8.923,3.126C33.848,110.385,33.2,110.415,32.546,110.415ZM33.692,4.172c-.463,0-.939.013-1.413.038a26.8,26.8,0,0,0-3.976.5l-.546.116a30.788,30.788,0,0,0-7.893,2.963,26.906,26.906,0,0,0-6.266,4.75,30.065,30.065,0,0,0-4.737,6.394,40.421,40.421,0,0,0-3.308,7.9,56.859,56.859,0,0,0-2.162,11.1,66.376,66.376,0,0,0-.164,10.645c.016.248.033.481.05.69l.034.4.044.449.005.087.481,3.766.424,3.213c.567,4.248,1.126,8.22,1.662,11.807.3,2.014.593,3.892.867,5.582l.278,1.685a96.128,96.128,0,0,0,1.946,9.6,32.108,32.108,0,0,0,3.624,8.791c1.408,2.139,3.318,4.072,6.814,6.894l.495.4a19.572,19.572,0,0,0,5.845,3.173,21.02,21.02,0,0,0,6.75,1.145c.581,0,1.163-.026,1.73-.079a16.332,16.332,0,0,0,7.668-2.641,16.9,16.9,0,0,0,5.549-6.3,45.126,45.126,0,0,0,3.521-9.574,97.381,97.381,0,0,0,2.267-12.307c.374-3,.652-6.082.826-9.167.08-1.41.131-2.765.145-3.427l0-.332c.184-7.307.075-14.57-.326-21.588a198.5,198.5,0,0,0-2.161-20.443l-.055-.325a26.518,26.518,0,0,0-1.609-5.7,17.643,17.643,0,0,0-2.566-4.351,14.719,14.719,0,0,0-3.46-3.092A16.506,16.506,0,0,0,39.789,5,21.736,21.736,0,0,0,33.692,4.172Z" transform="translate(27.784 15.625)"/><path class="a" d="M3.6.043C4.407-.18,5.194.489,5.4,1.549l.021.119,2.83,18.7c.19,1.253-.491,2.428-1.422,2.5l-.091,0h-5.2C.691,22.874,0,21.941,0,20.789a1.92,1.92,0,0,1,1.453-2.082l.091,0H4.849L2.4,2.5A2.2,2.2,0,0,1,3.513.071Z" transform="translate(67.166 66.99)"/><path class="a" d="M3.2,0C4.97,0,6.4.683,6.4,1.536s-1.437,1.547-3.2,1.552S0,2.4,0,1.552,1.437,0,3.2,0Z" transform="matrix(0.01, -1, 1, 0.01, 75.847, 70.677)"/><path class="a" d="M3.272.008c1.749-.088,3.119.54,3.062,1.4S4.812,3.049,3.063,3.138-.056,2.6,0,1.733,1.524.1,3.272.008Z" transform="translate(60.659 70.417) rotate(-78.662)"/><path class="a" d="M2.005,2.383A6.906,6.906,0,0,1,8.259.089,2.039,2.039,0,0,1,9.612,2.4c-.1,1.144-.867,1.962-1.714,1.828a4.378,4.378,0,0,0-4.01,1.457,6.83,6.83,0,0,0-.826,1.05l-.1.169-.045.077-.072.131a1.326,1.326,0,0,1-2.134.62A2.559,2.559,0,0,1,.247,4.852l.083-.166c.1-.182.227-.411.395-.674A10.554,10.554,0,0,1,2.005,2.383Z" transform="translate(53.273 49.326)"/><path class="a" d="M2.3.656A8.045,8.045,0,0,1,5.967.025a5.4,5.4,0,0,1,4.391,3.09,2.591,2.591,0,0,1-.343,2.913,1.287,1.287,0,0,1-2.1-.359l-.06-.1a2.467,2.467,0,0,0-2.1-1.378,5.813,5.813,0,0,0-2.6.471c-.2.081-.4.167-.575.253l-.231.117-.182.1C1.4,5.6.487,5.135.137,4.085A2.429,2.429,0,0,1,.909,1.326l.162-.1A10.2,10.2,0,0,1,2.3.656Z" transform="translate(73.186 46.729)"/><path class="a" d="M48.318,4.964S59.793,59.333,33.035,64.9c0,0-15.591,3.754-19.142-3.685,0,0,11.269-8.135,9.88-16.825,0,0-12.71,18.842-23.773,5.284,0,0,18.422-4.172,16.826-26.559C15.643,6.98,44.2-8.107,48.318,4.964Z" transform="translate(5.109 30.74)"/><path class="c" d="M4.492,43.351,20.8,40.014C22.5,25.205,28.882,3.93,51.369.454,86.514-5.039,87.595,41.127,87.595,41.127L6.138,57.535C3.257,58.16.53,55.449.067,51.486-.4,47.592,1.61,43.977,4.492,43.351Z" transform="translate(0 0)"/><path class="a" d="M.939.167c.756-.435,1.626.008,1.987.991l.06.171L3,1.365c.053.137.122.3.207.474A7.861,7.861,0,0,0,4.2,3.394,6.315,6.315,0,0,0,10.88,5.517c.843-.175,1.631.606,1.76,1.744A2.088,2.088,0,0,1,11.35,9.64,8.87,8.87,0,0,1,2.127,6.489a11.942,11.942,0,0,1-1.5-2.37A9.467,9.467,0,0,1,.124,2.9,2.406,2.406,0,0,1,.939.167Z" transform="translate(58.47 90.489)"/></g><path class="d" d="M100.958,41.437V17.59C100.958,7.856,95.144,0,87.94,0H82.846c0,24.125-14.459,43.732-32.366,43.732S18.113,24.2,18.113,0H13.019C5.815,0,0,7.856,0,17.59V144.614c0,9.734,5.815,17.59,13.019,17.59h74.87c7.2,0,13.019-7.856,13.019-17.59V128.831c17.856,0,32.366-19.537,32.366-43.732C133.325,60.974,118.814,41.437,100.958,41.437Z" transform="translate(67.854 136.377)"/><g transform="translate(126.412 261.471)"><path class="b" d="M28.346,17.736C28.295,17.458,16.974-.41,16.614.007S.766,9.741.405,10.506c-.36.7-.926,4.936.617,8.83S4.316,32.2,11.314,32.893C18.312,33.658,28.346,17.736,28.346,17.736Z" transform="translate(5.152 13.394)"/><path class="b" d="M.418,15.445S-.92,3.139,1.19.219,15.083,24.553,19.149,26.43" transform="translate(12.446 2.128)"/><path class="a" d="M1.629.889C2.611-.469,3.81-.139,4.981.988A17.612,17.612,0,0,1,7.241,3.9l.368.567c1.047,1.63,1.94,3.161,3.956,6.768L14,15.615c3.924,7.009,6.108,10.4,7.143,10.946l.045.022a2.322,2.322,0,0,1,.962,2.648c-.276,1.09-1.153,1.672-1.96,1.3l-.141-.069c-1.858-.964-3.924-4.135-8.355-12.05l-3.31-5.933C6.91,9.854,6.139,8.548,5.279,7.209l-.2-.3A22.514,22.514,0,0,0,3.637,4.877L3.5,4.714l0,.013a23.547,23.547,0,0,0-.405,4.666l0,.267c-.005,1.675.071,3.487.2,5.3.027.369.054.721.082,1.053l.079.874c.017.178.03.307.039.383a2.079,2.079,0,0,1-1.3,2.367c-.844.167-1.628-.621-1.752-1.76l-.07-.705L.3,16.487c-.03-.356-.06-.731-.088-1.124C.076,13.423-.006,11.476,0,9.643.013,5.505.431,2.548,1.629.889Z" transform="translate(10.902 0)"/><path class="b" d="M1.023,13.786S-1.808,4.817,1.949.506C5.654-3.8,14.864,20.738,18.878,23.867" transform="translate(5.564 5.942)"/><path class="a" d="M2.486,1.06C4.18-.91,6.169.007,8.3,2.647a51.823,51.823,0,0,1,4.681,7.466l.657,1.212c.185.343.377.7.582,1.088l2.11,3.962c3.046,5.686,3.935,7.1,4.859,7.819a2.522,2.522,0,0,1,.566,2.849c-.426,1-1.37,1.34-2.109.764l-.258-.208c-1.413-1.18-2.342-2.727-6.3-10.168L11.426,14.3c-.191-.356-.371-.691-.546-1.015l-.364-.668A48.962,48.962,0,0,0,6.221,5.725,5.332,5.332,0,0,0,4.675,4.276L4.54,4.215c-.017-.006-.025-.006-.032,0l-.015.017a6.67,6.67,0,0,0-1.38,4.088A19.608,19.608,0,0,0,3.544,13.3c.081.395.166.763.251,1.1l.113.425.079.273a2.407,2.407,0,0,1-.815,2.737c-.784.452-1.691-.041-2.025-1.1C.994,16.253.779,15.45.568,14.415A24.946,24.946,0,0,1,.035,7.982,11.372,11.372,0,0,1,2.486,1.06Z" transform="translate(4.019 3.808)"/><path class="b" d="M2.606,19.841S-2.128,3.781,1.165.374s8.7,17.451,15.128,22.248" transform="translate(2.334 10.176)"/><path class="a" d="M1.786.806A2.3,2.3,0,0,1,5.11.619,10.284,10.284,0,0,1,7.446,3.575l.229.393c.538.942,1.116,2.063,1.834,3.537l2.507,5.233.334.682c2.532,5.137,4.418,8.1,6.249,9.464a2.506,2.506,0,0,1,.605,2.834c-.412,1.008-1.351,1.375-2.1.818C14.654,24.707,12.5,21.3,9.617,15.4l-.724-1.5c-.655-1.368-1.584-3.32-1.812-3.789l-.275-.564C6.094,8.092,5.539,7.033,5.035,6.181A8.156,8.156,0,0,0,3.658,4.3l-.088-.07-.03.046c-.514.85-.6,3.368-.108,6.929l.038.269c.214,1.478.512,3.059.872,4.69.23,1.045.475,2.06.722,3.016l.148.567q.093.351.177.658l.211.748a2.38,2.38,0,0,1-.863,2.709c-.792.426-1.69-.1-2.005-1.166l-.121-.422c-.074-.263-.155-.556-.24-.876L2.3,21.158c-.314-1.186-.628-2.467-.922-3.8C1,15.61.676,13.9.44,12.282-.358,6.779-.162,2.821,1.786.806Z" transform="translate(0.774 8.089)"/><path class="b" d="M29.227,25.586h0a23.038,23.038,0,0,0-.772-10.29c-1.184-3.754-2.573-8.76-2.676-12.028-.206-5.632,6.586-2.99,6.9.487s1.6,3.268,4.58,6.883,2.418,17.729,2.418,17.729,2.624,7.3-5.815,15.991-17.5,1.947-17.5,1.947S0,38.171,0,22.249s4.322,7.3,12.5,13.836" transform="translate(1.544 2.346)"/><path class="a" d="M25.782,5.458c-.15-4.1,2.206-5.982,5.054-5.332a6.4,6.4,0,0,1,4.916,5.467,2.927,2.927,0,0,0,.642,1.918l.076.09c-.02-.023,2.288,2.272,3.36,3.571,1.508,1.826,2.305,5.182,2.7,9.756a81.773,81.773,0,0,1,.261,8.256l-.015.731-.005.189.016.063q.038.155.076.334l.037.185a15.741,15.741,0,0,1-.331,6.99A23.7,23.7,0,0,1,36.338,48.1a19.422,19.422,0,0,1-1.768,1.615,13.626,13.626,0,0,1-14.906,1.9,14.443,14.443,0,0,1-2.312-1.265l-.088-.062-.333-.178-.325-.181c-.585-.332-1.235-.728-1.934-1.188A38.909,38.909,0,0,1,8.817,44.02C3.344,38.637,0,32.094,0,24.335c0-3.1.144-4.917.569-6.024.436-1.137,1.286-1.8,2.258-1.447a3.072,3.072,0,0,1,1.46,1.392c.688,1.079,3.971,8.366,4.746,9.9,1.987,3.925,3.868,6.679,5.8,8.223a2.53,2.53,0,0,1,.543,2.857c-.434.992-1.381,1.32-2.114.734-2.329-1.861-4.423-4.878-6.57-9.051l-.208-.407c-.552-1.091-1.942-4.123-3.05-6.49L3.095,23.3v.1q0,.33-.006.691v.245c0,6.173,2.792,11.636,7.546,16.312A35.877,35.877,0,0,0,16.027,45c.552.364,1.069.683,1.541.957l.232.133q.207.118.377.209l.262.138a1.365,1.365,0,0,1,.143.082l.186.131c.087.058.209.137.365.232a13.259,13.259,0,0,0,1.5.778,11.288,11.288,0,0,0,12.363-1.524,16.2,16.2,0,0,0,1.474-1.347,19.544,19.544,0,0,0,5.195-8.5,10.234,10.234,0,0,0,.256-4.534l-.032-.157c-.03-.137-.052-.214-.056-.227a2.725,2.725,0,0,1-.153-1.024l.014-.455q0-.107.006-.232a77.458,77.458,0,0,0-.229-8.238c-.315-3.614-.931-6.208-1.7-7.137l-.154-.182c-1.006-1.173-3.053-3.21-3.154-3.326A7.544,7.544,0,0,1,32.686,6.09a3.319,3.319,0,0,0-2.365-1.851c-1.128-.258-1.491.033-1.455,1.027a46.614,46.614,0,0,0,2.322,10.555l.228.73a25.8,25.8,0,0,1,.87,11.531c-.167,1.13-.98,1.862-1.816,1.636a2.15,2.15,0,0,1-1.211-2.454,20.371,20.371,0,0,0-.584-8.762l-.357-1.145A49.742,49.742,0,0,1,25.782,5.458Z" transform="translate(0 0.259)"/></g><g transform="translate(59.127 261.471)"><path class="b" d="M0,17.736C.051,17.458,11.372-.41,11.732.007s15.849,9.734,16.209,10.5a14.721,14.721,0,0,1-.617,8.83C25.78,23.229,24.03,32.2,17.032,32.893,10.034,33.658,0,17.736,0,17.736Z" transform="translate(9.602 13.394)"/><path class="b" d="M18.73,15.445S20.068,3.139,17.958.219,4.065,24.553,0,26.43" transform="translate(11.506 2.128)"/><path class="a" d="M17.256.988c1.171-1.127,2.37-1.457,3.351-.1,1.2,1.659,1.616,4.616,1.629,8.753.006,1.833-.076,3.78-.216,5.721l-.058.762q-.015.184-.03.362l-.1,1.058c-.014.143-.026.254-.034.331-.124,1.14-.908,1.928-1.752,1.76a2.079,2.079,0,0,1-1.3-2.367l.039-.383.022-.236c.047-.509.095-1.078.139-1.692.131-1.811.207-3.623.2-5.3a25.5,25.5,0,0,0-.373-4.78l-.037-.167-.042.048a19.833,19.833,0,0,0-1.4,1.931l-.463.717c-.959,1.507-1.857,3.056-3.824,6.576l-2.466,4.426C6,26.528,3.938,29.656,2.043,30.531c-.807.373-1.684-.209-1.96-1.3A2.366,2.366,0,0,1,.96,26.627l.085-.043c1.017-.47,3.206-3.856,7.188-10.969l2.175-3.9c2.2-3.95,3.129-5.541,4.22-7.24l.2-.314A18.636,18.636,0,0,1,17.256.988Z" transform="translate(9.962 0)"/><path class="b" d="M17.856,13.786s2.83-8.969-.926-13.279C13.224-3.8,4.014,20.738,0,23.867" transform="translate(18.659 5.942)"/><path class="a" d="M13.662,2.649c2.135-2.64,4.125-3.557,5.811-1.6a11.376,11.376,0,0,1,2.459,6.931,24.946,24.946,0,0,1-.533,6.433c-.212,1.035-.426,1.838-.579,2.323-.334,1.06-1.241,1.552-2.025,1.1a2.385,2.385,0,0,1-.848-2.623l.112-.387q.022-.08.049-.179c.107-.4.215-.853.316-1.346a19.608,19.608,0,0,0,.431-4.986,6.841,6.841,0,0,0-1.276-3.963l-.123-.146c-.013-.008-.033.007-.163.067a5.332,5.332,0,0,0-1.546,1.448,50.842,50.842,0,0,0-4.475,7.221l-.73,1.353L7.946,19.175c-3.4,6.342-4.183,7.507-5.631,8.635-.738.576-1.683.233-2.109-.764A2.522,2.522,0,0,1,.773,24.2l.074-.059c.961-.79,1.947-2.433,5.423-8.955l1.471-2.767c.206-.387.4-.745.582-1.088l.272-.5A55.638,55.638,0,0,1,13.662,2.649Z" transform="translate(17.115 3.805)"/><path class="b" d="M13.688,19.841S18.422,3.781,15.128.374,6.432,17.825,0,22.622" transform="translate(24.473 10.176)"/><path class="a" d="M14.287.619a2.3,2.3,0,0,1,3.324.187c1.948,2.015,2.144,5.974,1.346,11.476-.235,1.621-.557,3.328-.943,5.078-.252,1.141-.518,2.245-.787,3.284l-.135.514c-.088.333-.172.64-.249.918l-.178.625c-.315,1.07-1.213,1.592-2.005,1.166a2.38,2.38,0,0,1-.863-2.709l.1-.361.165-.6q.058-.214.12-.449c.3-1.119.593-2.329.87-3.583.36-1.631.657-3.212.872-4.69L16,10.918c.45-3.407.352-5.81-.148-6.637l-.03-.046-.02.015a6.89,6.89,0,0,0-1.332,1.744l-.112.187-.192.33c-.454.794-.957,1.764-1.58,3.036l-.512,1.059c-.55,1.149-1.725,3.618-2.117,4.422l-.361.737c-2.8,5.674-4.909,8.98-7.311,10.771-.746.557-1.685.19-2.1-.818A2.506,2.506,0,0,1,.8,22.884c1.831-1.365,3.717-4.326,6.249-9.464l.561-1.153c.615-1.279,1.849-3.872,2.124-4.44L10.04,7.2c.748-1.526,1.344-2.662,1.911-3.62A10.284,10.284,0,0,1,14.287.619Z" transform="translate(22.929 8.089)"/><path class="b" d="M10.832,25.586h0A23.038,23.038,0,0,1,11.6,15.3c1.184-3.754,2.573-8.76,2.676-12.028.206-5.632-6.586-2.99-6.9.487s-1.6,3.268-4.58,6.883S.386,28.367.386,28.367s-2.624,7.3,5.815,15.991,17.5,1.947,17.5,1.947,16.363-8.135,16.363-24.056-4.322,7.3-12.5,13.836" transform="translate(1.549 2.346)"/><path class="a" d="M12.316.126c2.848-.651,5.2,1.233,5.054,5.317a49.771,49.771,0,0,1-2.539,11.924l-.264.846a20.269,20.269,0,0,0-.674,9.049,2.15,2.15,0,0,1-1.211,2.454c-.836.226-1.649-.507-1.816-1.636a25.887,25.887,0,0,1,.757-11.17l.336-1.078A46.628,46.628,0,0,0,14.287,5.252c.036-.98-.327-1.271-1.455-1.013A3.319,3.319,0,0,0,10.466,6.09a7.61,7.61,0,0,1-1.654,4.536l-.12.142c-.106.122-2.375,2.379-3.307,3.509-.767.929-1.383,3.523-1.7,7.137a76.375,76.375,0,0,0-.241,7.638l.017.833c.006.213.011.367.014.455a2.754,2.754,0,0,1-.108.886l-.045.138c-.006.017-.043.148-.089.383a10.234,10.234,0,0,0,.256,4.534,19.544,19.544,0,0,0,5.195,8.5,16.2,16.2,0,0,0,1.474,1.347,11.288,11.288,0,0,0,12.363,1.524,13.466,13.466,0,0,0,1.305-.665l.19-.113c.218-.133.371-.234.452-.292l.03-.022a1.425,1.425,0,0,1,.14-.092l.226-.118q.156-.083.351-.191l.134-.075c.533-.3,1.13-.666,1.774-1.09a35.877,35.877,0,0,0,5.393-4.349c4.754-4.676,7.546-10.14,7.546-16.312v-.324l-.007-.715-.914,1.955c-.9,1.936-1.858,4.007-2.36,5.027l-.114.229c-2.22,4.385-4.373,7.538-6.778,9.459-.734.586-1.681.258-2.114-.734a2.53,2.53,0,0,1,.543-2.857c1.933-1.544,3.814-4.3,5.8-8.223l.1-.2c.923-1.881,3.984-8.658,4.646-9.7a3.072,3.072,0,0,1,1.46-1.392c.972-.348,1.822.31,2.258,1.447.425,1.107.569,2.923.569,6.024,0,7.759-3.344,14.3-8.817,19.685a38.909,38.909,0,0,1-5.856,4.726c-.7.46-1.348.856-1.934,1.188l-.418.232-.24.127-.087.062-.22.148a14.86,14.86,0,0,1-1.893,1.027l-.2.09a13.626,13.626,0,0,1-14.906-1.9A19.42,19.42,0,0,1,6.814,48.1,23.7,23.7,0,0,1,.581,37.676a15.741,15.741,0,0,1-.331-6.99q.037-.19.075-.357L.379,30.1l-.008-.323A82.791,82.791,0,0,1,.62,20.928c.4-4.574,1.2-7.93,2.7-9.756l.235-.279C4.7,9.57,6.7,7.579,6.683,7.6A2.888,2.888,0,0,0,7.4,5.593,6.4,6.4,0,0,1,12.316.126Z" transform="translate(0 0.259)"/></g></g><g transform="translate(337.455 2.092)"><g transform="translate(9.865 120.32)"><path class="a" d="M38.078,26.052,3.7,18.683,0,2.9C6.432-2.592,28.044-.02,44.922,8.393l-6.844,17.66" transform="translate(69.944 0)"/><path class="e" d="M164.418,110.963,138.844,30.174a15.846,15.846,0,0,0-9.262-10.22,16.4,16.4,0,0,0-6.844-2.433l-8.7-.973.772-11.055s-1.184,3.963-10.754,6.4C91.144,15.157,69.892,0,69.892,0V17.1l-13.173-.487c-5.66-.209-16.621-.834-23,16.2L2.792,137.731c-5.506,13.558-2.624,33.581,6.484,43.94l18.061,13.488-1.7,27.115,136.669-.626-.772-24.056C203.114,162.76,164.418,110.963,164.418,110.963Z" transform="translate(0 2.9)"/><g transform="translate(16.737 117.979)"><path class="b" d="M.645,8.653C7.122,2.383,13.4-.317,19.379.029A20.552,20.552,0,0,1,32.045,5.808,30.3,30.3,0,0,1,35.7,9.787l.244.322c.505.677.865,1.219,1.075,1.569a2.614,2.614,0,0,1-.228,2.934,1.276,1.276,0,0,1-2.107-.208l-.21-.33-.1-.151c-.228-.339-.5-.721-.818-1.136a26.821,26.821,0,0,0-3.229-3.518A17.985,17.985,0,0,0,19.247,4.2C13.979,3.892,8.374,6.3,2.443,12.044a1.308,1.308,0,0,1-2.154-.481A2.588,2.588,0,0,1,.645,8.653Z" transform="translate(0 13.208)"/><path class="b" d="M.831,5.561C7.643.769,13.676-.81,18.946.379c4.269.963,7.805,3.674,10.649,7.57a30.517,30.517,0,0,1,3.063,5.263c.3.647.551,1.257.764,1.819l.107.286c.081.22.141.4.2.563a2.423,2.423,0,0,1-.784,2.753c-.779.468-1.691-.006-2.038-1.059a20.812,20.812,0,0,0-.871-2.165A26.305,26.305,0,0,0,27.4,10.878a15.367,15.367,0,0,0-8.959-6.385C13.868,3.462,8.5,4.867,2.257,9.261,1.5,9.793.568,9.4.175,8.374A2.485,2.485,0,0,1,.831,5.561Z" transform="translate(3.499 5.508)"/><path class="b" d="M18.4.3C24.54-.875,31.21,1.367,38.349,7.587a2.559,2.559,0,0,1,.461,2.883,1.327,1.327,0,0,1-2.134.622C30.137,5.4,24.206,3.4,18.835,4.431c-4.238.812-7.973,3.47-11.2,7.417a35.448,35.448,0,0,0-3.584,5.345c-.3.543-.559,1.051-.783,1.514l-.206.436c-.088.19-.147.324-.176.4-.417,1-1.358,1.363-2.1.8A2.512,2.512,0,0,1,.2,17.5l.095-.223c.26-.6.687-1.481,1.283-2.566a39.423,39.423,0,0,1,3.99-5.951C9.216,4.287,13.5,1.24,18.4.3Z" transform="translate(114.131 7.681)"/><path class="b" d="M5.2,9.856c5.871-7.916,14.158-11.674,25.076-9a2.125,2.125,0,0,1,1.244,2.424c-.152,1.133-.955,1.886-1.794,1.681-9.9-2.423-17.173.877-22.345,7.85a30.584,30.584,0,0,0-3.419,5.934c-.263.6-.487,1.163-.673,1.673l-.09.251c-.073.207-.127.372-.165.49l-.05.162c-.308,1.074-1.2,1.609-2,1.193a2.369,2.369,0,0,1-.883-2.7l.077-.258A28.964,28.964,0,0,1,1.3,16.619,34.817,34.817,0,0,1,5.2,9.856Z" transform="translate(112.587 0)"/></g></g><g transform="translate(0 0)"><path class="b" d="M0,46.652V0L30.36,24.682l-.72,25.1Z" transform="translate(84.44 91.725)"/><path class="a" d="M31.185,53.955h0a1.165,1.165,0,0,1-.123-.007L1.424,50.82A1.431,1.431,0,0,1,.41,50.157,2.525,2.525,0,0,1,0,48.741V2.089C0,.937.694,0,1.547,0A1.258,1.258,0,0,1,2.34.3L32.7,24.984a2.336,2.336,0,0,1,.747,1.868l-.721,25.1C32.693,53.075,32.017,53.955,31.185,53.955ZM3.088,5.778V46.812L29.7,49.621l.622-21.7Z" transform="translate(82.896 89.636)"/><path class="b" d="M53.2,8.685C40.853-2.856,29.738-7.1,12.294,23.077L9.927,42.962C2.621,39.972-1.239,44.839.356,53.46c1.7,9.316,5.712,13.488,12.35,11.055h0c3.19,9.734,9.211,20.927,20.377,24.2,17.5,5.145,21.509-9.525,23.464-15.226C58.451,67.643,65.552,20.227,53.2,8.685Z" transform="translate(71.425 32.981)"/><path class="a" d="M41.53,93.992h0A25.855,25.855,0,0,1,34.3,92.847a24.3,24.3,0,0,1-6.735-3.166,28.626,28.626,0,0,1-5.678-5.1A47.979,47.979,0,0,1,13.51,69.409l-.136-.381a10.4,10.4,0,0,1-2.6.352c-5.128,0-8.693-4.5-10.309-13L.4,56.064a20.845,20.845,0,0,1-.312-5.956,11.309,11.309,0,0,1,1.357-4.485,6.971,6.971,0,0,1,2.529-2.6,7.016,7.016,0,0,1,3.575-.913A10.2,10.2,0,0,1,10,42.429l.217.056,2.1-17.64a2.524,2.524,0,0,1,.242-.831l.065-.122c2.121-3.669,4.212-6.937,6.214-9.712a59.6,59.6,0,0,1,5.907-7.091,30.181,30.181,0,0,1,5.687-4.595A17.145,17.145,0,0,1,35.984.272,14.457,14.457,0,0,1,38.745,0c5.031,0,10.08,2.712,16.882,9.068,5.725,5.351,8.31,17.579,7.682,36.347-.406,12.141-2.384,26.657-3.814,31.044l-.608,1.8c-.107.315-.21.609-.313.9l-.2.565a36.8,36.8,0,0,1-1.778,4.118,24.283,24.283,0,0,1-2.772,4.308,16.9,16.9,0,0,1-3.4,3.188,14.466,14.466,0,0,1-4.079,1.978A16.589,16.589,0,0,1,41.53,93.992ZM14.252,64.527h0a1.6,1.6,0,0,1,1.411,1.241c4.175,12.738,10.666,20.477,19.294,23a23.7,23.7,0,0,0,6.606,1.063,14.108,14.108,0,0,0,4.042-.559,11.843,11.843,0,0,0,3.38-1.63,16.285,16.285,0,0,0,5.065-6.178A32.3,32.3,0,0,0,55.6,77.861c.18-.489.356-.987.585-1.665l.491-1.455c1.235-3.787,3.078-17.456,3.516-28.752l.027-.762a98.1,98.1,0,0,0-1.14-20.751C58.013,18.76,56.259,14.731,53.87,12.5,47.628,6.666,43.092,4.177,38.7,4.177a11.93,11.93,0,0,0-2.278.224,14.677,14.677,0,0,0-4.757,1.915,26.96,26.96,0,0,0-4.98,4.013,54.155,54.155,0,0,0-5.269,6.248c-1.807,2.464-3.7,5.364-5.624,8.619l-.5.843L13,45.391c-.121,1.017-.761,1.755-1.522,1.755a1.165,1.165,0,0,1-.36-.058l-.089-.033a9.607,9.607,0,0,0-3.562-.817,4.365,4.365,0,0,0-2.118.494A3.731,3.731,0,0,0,3.9,48.173c-.88,1.523-1.054,3.9-.5,6.886A18.875,18.875,0,0,0,6.15,62.693a6.316,6.316,0,0,0,2.072,1.891,5.322,5.322,0,0,0,2.568.627,8.788,8.788,0,0,0,2.869-.543l.2-.071A1.171,1.171,0,0,1,14.252,64.527Z" transform="translate(69.879 30.883)"/><g transform="translate(108.882 57.846)"><path class="a" d="M4.766.013C5.583-.112,6.323.649,6.461,1.73l.013.121,1.492,17.8c.1,1.214-.585,2.276-1.477,2.319H6.4l-4.888-.139C.659,21.807-.018,20.853,0,19.7a1.891,1.891,0,0,1,1.485-2.04h.091l3.123.089L3.406,2.321A2.079,2.079,0,0,1,4.676.031Z" transform="translate(4.991 18.096)"/><ellipse class="a" cx="1.492" cy="3.059" rx="1.492" ry="3.059" transform="translate(14.151 17.123)"/><ellipse class="a" cx="1.492" cy="3.059" rx="1.492" ry="3.059" transform="translate(0 16.776)"/><path class="a" d="M1.716.142A5.4,5.4,0,0,1,4.574.248C6.257.8,7.551,2.291,8.114,4.76A2.283,2.283,0,0,1,7.092,7.367c-.786.327-1.617-.236-1.9-1.264l-.029-.116A1.987,1.987,0,0,0,3.843,4.3,3.185,3.185,0,0,0,2.2,4.261l-.124.029c-.054.013-.094.025-.119.033l-.02.007c-.824.3-1.669-.367-1.888-1.48A2.234,2.234,0,0,1,1.148.3L1.272.257C1.389.221,1.538.181,1.716.142Z" transform="translate(13.018 0)"/><path class="a" d="M.018,0s4.734,2.294,8.7,1.391c0,0-1.492,9.247-5.352,8.135C-.445,8.343.018,0,.018,0Z" transform="translate(0.24 41.666)"/></g><path class="a" d="M60.2,20.322C52.331-.466,39.724-2.274,25.161,1.689,10.6,5.582,2.469,32.072,1.954,34.505c-5.918,28.645,1.9,59.236,19.4,77.313,1.955,2.016,3.859,4.033,5.712,5.979,10.291,10.846-12.5,20.162-12.5,20.162C58.145,142.688,48.626,83.73,47.7,78.515,61.7,71.354,67.51,39.65,60.2,20.322Z" transform="translate(0 0)"/><path class="c" d="M38.606,26.021h0c-1.389,4.8-5.4,7.161-8.953,5.284L4.388,18.026c-3.551-1.877-5.3-7.3-3.911-12.1h0C1.866,1.131,5.88-1.233,9.43.644L34.7,13.924C38.246,15.8,40,21.224,38.606,26.021Z" transform="translate(45.061 35.46)"/><path class="a" d="M73.731,46.017C73.577,31.555,71,18.9,64.572,10.558a13.391,13.391,0,0,0-3.653-3.893C55.67,2.076,48.518-.427,39,.06a1.083,1.083,0,0,0-.566.209,31.719,31.719,0,0,0-4.425.9,11.313,11.313,0,0,0-2.367.765,40.443,40.443,0,0,0-7.616,3.754C2.721,18.067-5.615,40.385,3.9,71.185c4.888,15.852,11.269,21,17.444,21V82.587c-.515-1.53-1.389-.9-1.389-.9-6.638,2.433-9.571-1.877-11.321-11.194-.823-4.519-.154-7.926,1.647-9.8.051-.07.1-.07.154-.139s.154-.139.206-.209.1-.07.154-.139c.1-.07.154-.139.257-.209.051,0,.1-.07.154-.07a.753.753,0,0,1,.257-.139c.051,0,.1-.07.154-.07.1-.07.206-.07.309-.139.051,0,.051,0,.1-.07a5.325,5.325,0,0,1,1.852-.348h1.184c.154,0,.36.07.515.07h.051a13.638,13.638,0,0,1,2.521.765h0c.566.209.154.556.772.9l1.544-.139a14.018,14.018,0,0,0,1.647-.139C35.55,58.462,56.442,45.46,63.852,28.774,69.1,37.4,69.666,54.29,68.689,68.612A51,51,0,0,0,73.731,46.017Z" transform="translate(63.143 15.951)"/><path class="b" d="M1.964,2.165A6.646,6.646,0,0,1,8.148.133,2.078,2.078,0,0,1,9.452,2.5C9.328,3.639,8.545,4.428,7.7,4.261a4.151,4.151,0,0,0-3.91,1.267,6.254,6.254,0,0,0-.773.934L2.93,6.6c-.051.08-.086.139-.1.172l-.011.02a1.315,1.315,0,0,1-2.147.535,2.578,2.578,0,0,1-.4-2.9l.082-.154c.094-.168.221-.378.384-.619A9.9,9.9,0,0,1,1.964,2.165Z" transform="translate(103.118 54.487)"/></g><path class="d" d="M101.638,71.173,98.4,47.951C97.058,38.5,90.317,32.308,83.371,34.046L78.431,35.3C75.138,11.8,58.414-3.637,41.022.743,23.629,5.193,12.206,27.788,15.448,51.288l-4.94,1.251C3.51,54.347-1.07,63.455.216,72.841L3.458,96.063c17.392-4.45,34.167,11.055,37.409,34.554,3.293,23.5-8.182,46.165-25.574,50.615L17.454,196.6c1.338,9.456,8.079,15.643,15.025,13.905l72.863-18.563c7-1.808,11.578-10.916,10.291-20.3l-2.161-15.365c-17.392,4.45-34.167-11.055-37.409-34.554C72.771,98.288,84.194,75.622,101.638,71.173Z" transform="translate(44.344 117.193)"/><g transform="translate(39.663 269.177)"><path class="b" d="M35.708,40.221c6.947,6.674,7.873,1.6,5.815-1.6C39,34.59,26.857,21.727,26.857,21.727s9.725,3.893,12.092-3.476-.206-8.83-3.859-6.327S20.065,5.389,20.065,5.389L16.36.731S3.856-4.692.666,14.01A23.8,23.8,0,0,0,3.393,32.087C4.885,34.381,10.031,43.42,26.343,54.4c0,0,7.667,3.824,1.9-3.615a48.681,48.681,0,0,0-4.528-5.145" transform="translate(1.556 2.098)"/><path class="a" d="M9.178,1.085a11.271,11.271,0,0,1,7.9-.67l.285.077a8.477,8.477,0,0,1,1.025.351,1.477,1.477,0,0,1,.494.359l.086.1,3.578,4.5.223.172.383.291q.3.227.647.479c1.093.8,2.256,1.6,3.438,2.341,1.042.656,2.05,1.238,3,1.725l.4.2c2.6,1.273,4.548,1.67,5.305,1.151,2.375-1.627,4.517-1.925,5.916-.232,1.511,1.829,1.413,5.031.058,9.249A7.669,7.669,0,0,1,34.815,26.9q-.351.03-.708.04l-.334,0,.619.678q.984,1.081,1.938,2.144l.989,1.108,1.014,1.148a74.07,74.07,0,0,1,5.839,7.224l.069.11c1.569,2.438,1.958,5.829.217,7.553-1.716,1.7-4.464.6-8.091-2.885a2.586,2.586,0,0,1-.363-2.909,1.309,1.309,0,0,1,2.153-.491,13.017,13.017,0,0,0,3.672,2.716,2.474,2.474,0,0,0,.575.164l.074.008-.007-.05a3.823,3.823,0,0,0-.485-1.247l-.089-.144a78.159,78.159,0,0,0-6.205-7.6l-.707-.8c-1.646-1.846-3.41-3.781-5.175-5.688L28.8,26.9l-1.338-1.429c-1.317-1.395-.28-4.195,1.305-3.673l.318.117.149.051c.329.111.7.223,1.106.328a12.956,12.956,0,0,0,4.279.442c2.317-.2,3.834-1.231,4.471-3.214a14.431,14.431,0,0,0,.783-3.705,2.757,2.757,0,0,0-.048-.7l-.021-.074-.021-.011-.044-.016a1.063,1.063,0,0,0-.456-.016,4.658,4.658,0,0,0-1.764.773l-.173.116c-1.86,1.274-4.594.671-8.2-1.174-1.029-.526-2.105-1.148-3.212-1.845-1.242-.782-2.459-1.617-3.6-2.453l-.463-.341q-.222-.165-.424-.319l-.415-.318-.189-.148a1.628,1.628,0,0,1-.184-.172l-.085-.1L17.14,4.7,17.1,4.688c-.134-.045-.28-.089-.438-.133L16.5,4.512a9.021,9.021,0,0,0-6.272.5c-3.125,1.522-5.4,5.113-6.5,11.567q-.013.077-.03.152a21.758,21.758,0,0,0,.918,13.129,18.417,18.417,0,0,0,1.037,2.2l.126.221c.118.2.209.347.265.43l.067.1.749,1.172c.367.569.727,1.1,1.13,1.675a52.964,52.964,0,0,0,3.862,4.821A88.428,88.428,0,0,0,28.124,54.323l.382.259.21.1.238.105.114.048-.2-.262-.139-.181a46.93,46.93,0,0,0-4.361-4.956,2.591,2.591,0,0,1-.345-2.913,1.306,1.306,0,0,1,2.156-.466,50.429,50.429,0,0,1,4.689,5.326l.283.369c2.018,2.665,2.79,4.42,2.14,6.22a2.167,2.167,0,0,1-2.06,1.6,5.052,5.052,0,0,1-1.624-.231c-.321-.091-.655-.2-1-.335l-.3-.12c-.391-.159-.719-.309-.944-.421a1.373,1.373,0,0,1-.154-.09A92.226,92.226,0,0,1,9.883,43.693a56.668,56.668,0,0,1-4.13-5.158c-.349-.495-.669-.965-.985-1.447L3.8,35.58l-.02-.03c-.126-.185-.3-.458-.5-.817l-.09-.159a22.954,22.954,0,0,1-1.3-2.747A27.149,27.149,0,0,1,.668,15.841l.063-.282.051-.294C2.124,7.8,5.015,3.217,8.979,1.185Z" transform="translate(0 0)"/><path class="b" d="M0,0C2.418,2.433,12.607,10.151,15.025,15.087s-.617,6.535-9.314-1.947" transform="translate(26.406 32.308)"/><path class="a" d="M.306.84a1.3,1.3,0,0,1,2.08-.5l.214.2C3.625,1.5,8.54,5.714,9.915,6.958l.7.642c.8.739,1.543,1.444,2.229,2.126a25.577,25.577,0,0,1,5.009,6.3,8.175,8.175,0,0,1,1.027,4.437c-.213,1.888-1.372,2.9-2.835,2.858-2.112-.059-5.435-2.243-9.7-6.4A2.59,2.59,0,0,1,6,14.005a1.307,1.307,0,0,1,2.155-.47l.454.438c3.071,2.935,5.492,4.629,6.9,5.062l.091.026-.043-.108c-.061-.15-.132-.315-.217-.493l-.065-.136a22.938,22.938,0,0,0-4.264-5.239c-.748-.744-1.57-1.522-2.476-2.349l-.6-.54C6.256,8.695,1.3,4.437.622,3.759A2.6,2.6,0,0,1,.306.84Z" transform="translate(24.862 30.222)"/><path class="b" d="M4.065,0c.257.626,16.929,12.793,15.849,15.991-.875,2.642-3.242,2.781-12.5-5.145L0,3.893" transform="translate(18.585 37.592)"/><path class="a" d="M4.859.263A1.239,1.239,0,0,1,6.612.5l.062.076.18.162.518.437c.272.225.608.5,1.2.975L10.583,3.78c1.461,1.188,2.481,2.035,3.635,3.022l.166.142q.857.734,1.635,1.427l.385.344a47.263,47.263,0,0,1,4.455,4.46l.151.182c1.707,2.076,2.493,3.689,1.857,5.572-.818,2.472-2.5,3.367-4.889,2.563-2.059-.693-5.013-2.7-9.306-6.334l-.544-.463-.055-.049L.663,7.693a2.58,2.58,0,0,1-.387-2.9A1.316,1.316,0,0,1,2.346,4.2l.079.069L9.81,11.2l.228.195c4.1,3.489,6.871,5.4,8.581,6.017l.106.037c.569.192.865.254,1.044.186l.02-.01-.015-.025a9.472,9.472,0,0,0-.711-.992l-.117-.144A41.334,41.334,0,0,0,14.932,12.4l-.239-.216q-.736-.662-1.55-1.366l-.412-.355c-1.2-1.029-2.233-1.887-3.747-3.119L5.7,4.683l-.36-.3c-.155-.132-.281-.243-.384-.338s-.17-.161-.241-.236A2.019,2.019,0,0,1,4.259,3.1,2.509,2.509,0,0,1,4.859.263Z" transform="translate(17.041 35.506)"/></g><g transform="translate(129.364 258.657)"><path class="b" d="M6.872,29.9C-1.258,33.442-1,28.3,1.675,26c3.345-2.851,17.753-10.22,17.753-10.22s-10.137-.209-10.754-8.2,2.161-8.343,5.094-4.45,15.8-.209,15.8-.209L34.145,0S47.266-.139,46.237,18.981c0,11.263-6.586,16.13-6.586,16.13-1.9,1.6-8.851,8.135-26.86,12.1,0,0-8.182.556-1.029-4.241a41.59,41.59,0,0,1,5.454-3.059" transform="translate(1.564 2.086)"/><path class="a" d="M35.585.007,35.7,0l.156,0c.139,0,.318.015.531.035a12.029,12.029,0,0,1,1.531.249,13.143,13.143,0,0,1,4.571,2.006c4.645,3.206,7.3,9.289,6.873,18.567l-.015.294v.292a25.222,25.222,0,0,1-3.5,13l-.158.255a19.212,19.212,0,0,1-2.509,3.219,12.756,12.756,0,0,1-.99.923L42,38.991l-.539.461c-.289.246-.548.462-.828.689-.756.613-1.551,1.211-2.446,1.826a50.483,50.483,0,0,1-8.5,4.637A81.942,81.942,0,0,1,14.6,51.352l-.085.015-.086.009c-.047,0-.125.007-.23.012a12.95,12.95,0,0,1-1.959-.063,5.7,5.7,0,0,1-1.636-.4,2.732,2.732,0,0,1-1.7-2.191c-.389-2.17.876-3.632,3.731-5.546a42.359,42.359,0,0,1,5.631-3.16c.8-.383,1.686.186,1.969,1.273a2.334,2.334,0,0,1-.942,2.661,39.757,39.757,0,0,0-5.282,2.961l-.344.235-.1.07H13.8l.4-.012.49-.109a79.5,79.5,0,0,0,13.62-4.288l.433-.186a47.8,47.8,0,0,0,8.051-4.384c.828-.569,1.561-1.12,2.257-1.685.194-.157.378-.309.572-.473l.781-.665.176-.14.092-.078c.191-.164.407-.367.643-.609a15.493,15.493,0,0,0,2.019-2.591,20.04,20.04,0,0,0,2.925-10.575l0-.365,0-.151c.419-7.787-1.567-12.415-5.18-14.908A10.6,10.6,0,0,0,37.4,4.4a9.938,9.938,0,0,0-1.044-.182l-.28-.028-.047,0L31.788,6.892a1.334,1.334,0,0,1-.2.105l-.1.038-.282.087c-.177.053-.374.111-.59.173l-.166.047c-.8.226-1.682.452-2.608.663a41.736,41.736,0,0,1-4.78.824C18.832,9.282,15.834,8.8,14.25,6.7A6.407,6.407,0,0,0,12.6,5.055a1.161,1.161,0,0,0-.44-.172h-.068s-.007.008-.035.06a2.482,2.482,0,0,0-.2.65,15.15,15.15,0,0,0-.078,3.855c.185,2.393,1.688,4.115,4.292,5.226a14.429,14.429,0,0,0,3.419.951c.33.051.64.09.925.117l.209.018c.17.013.294.02.366.022h.031c1.671.034,2.1,3.1.609,3.989L19.3,20.979l-.632.332c-1.883.991-3.767,2-5.552,2.988l-1.2.669-1.354.764A52.232,52.232,0,0,0,4.066,29.85a3.28,3.28,0,0,0-.858,1.125l-.016.04a2.074,2.074,0,0,0,.518.087l.129,0A10.765,10.765,0,0,0,7.962,30c.811-.354,1.681.248,1.943,1.344a2.3,2.3,0,0,1-.995,2.626c-4.248,1.853-7.108,1.8-8.367-.5-1.278-2.338-.162-5.4,1.872-7.14l.2-.164a60.848,60.848,0,0,1,7.241-4.552l1.33-.746c1.013-.564,2.063-1.138,3.13-1.713l.88-.473-.059-.024A9.851,9.851,0,0,1,8.723,10.12L8.7,9.881c-.354-4.578.266-7.674,2.116-8.8,1.713-1.044,3.691.119,5.6,2.647.693.92,3.079,1.3,6.4.945a39.466,39.466,0,0,0,4.51-.779c.885-.2,1.725-.418,2.492-.634l.45-.129.355-.107L35.05.2A1.244,1.244,0,0,1,35.585.007Z" transform="translate(0 0)"/><path class="b" d="M19.124,0C16.242,1.321,4.871,4.589,1.423,8.343c-3.4,3.685-.875,6.535,9.314,1.947" transform="translate(1.919 26.767)"/><path class="a" d="M20.174.111c.807-.37,1.684.214,1.958,1.305a2.363,2.363,0,0,1-.881,2.6l-.085.043c-.754.346-7.12,2.645-9.067,3.433l-.815.336c-3.634,1.521-6.172,2.945-7.348,4.226-.167.181-.308.351-.425.5l-.056.074.017,0c1.45.215,4.276-.442,8.074-2.127l.249-.111c.809-.364,1.683.226,1.953,1.319a2.312,2.312,0,0,1-.976,2.638l-.559.248c-4.7,2.051-8.167,2.694-10.124,1.9a3.53,3.53,0,0,1-2.055-3.89A6.845,6.845,0,0,1,2,8.805c1.644-1.791,4.607-3.423,8.9-5.181l.651-.262C13.706,2.514,18.772.677,19.969.2Z" transform="translate(0.374 24.681)"/><path class="b" d="M18.683,0C18.271.487-.3,5.353,0,8.83c.257,2.851,2.521,3.963,13.07.139l8.593-3.685" transform="translate(4.779 33.372)"/><path class="a" d="M19.617.172a1.289,1.289,0,0,1,1.776.54,2.624,2.624,0,0,1-.145,2.943l-.109.126a1.557,1.557,0,0,1-.789.468l-.9.311L15.671,5.79c-1.307.428-2.352.782-3.393,1.151l-.983.353A44.829,44.829,0,0,0,4.7,10.161a9.635,9.635,0,0,0-1.33.891l-.114.1.009.009a1.768,1.768,0,0,0,.937.238l.114.01c1.759.144,4.856-.554,9.608-2.26l.259-.094,8.56-3.67c.784-.336,1.619.217,1.908,1.241l.03.116a2.339,2.339,0,0,1-.919,2.579l-.086.04L15.09,13.043l-.067.026-.92.329C9.394,15.052,6.219,15.74,4.135,15.57,1.678,15.369.262,13.843.02,11.164c-.191-2.148.991-3.391,3.313-4.748L3.5,6.321A45.5,45.5,0,0,1,10.154,3.39l1.14-.413c1.392-.5,2.757-.953,4.685-1.578L18.9.446,19.325.3l.236-.091Z" transform="translate(3.23 31.287)"/></g></g><g transform="translate(540.399 0)"><g transform="translate(9.571 94.579)"><path class="c" d="M209.944,104.938c.154-37.961-40.857-51.032-40.857-51.032,3.087-18.842,1.7-65.493-56.757-51.241-29.948,7.022-38.387,28.228-32.006,45.4-11.629,7.787-40.7,64.1-40.7,64.1l.566,48.39a24.225,24.225,0,0,0-6.741-.973C15.077,159.447.052,179.54,0,204.43c-.1,24.821,16.312,47.069,34.733,47.208a22.649,22.649,0,0,0,6.484-.9v.9l158.847-.556s.772-43.037-3.036-88.645C203.667,141.787,209.944,118.7,209.944,104.938Z" transform="translate(0 1.439)"/><path class="b" d="M47.1,0,57.7,7.926S30.122,23.986,25.131,98.31c-3.242,48.251-.669,123.548-.669,123.548l-18.216-.348S11.134,72.237,3.21,47.9c-7.924-24.265.823-25.794,4.837-30.869C12.112,12.028,47.1,0,47.1,0Z" transform="translate(96.256 32.193)"/><ellipse class="a" cx="26.449" cy="35.736" rx="26.449" ry="35.736" transform="translate(1.081 166.031)"/><ellipse class="a" cx="23.001" cy="31.078" rx="23.001" ry="31.078" transform="translate(100.959 173.678)"/><path class="a" d="M0,44.082C4.58,41.3,19.142,18.775,26.243,0,32.161-.136,40.7,5.356,44.407,9.25,27.581,45.125-.051,44.082,0,44.082Z" transform="translate(142.845 55.204)"/><g transform="translate(110.221 115.832)"><path class="a" d="M3.6,1.061A21.514,21.514,0,0,1,13.893.305c4.973.838,9.825,3.412,14.366,8.07A55.449,55.449,0,0,1,38.3,23.545a2.555,2.555,0,0,1-.471,2.88,1.329,1.329,0,0,1-2.132-.637,51.512,51.512,0,0,0-9.3-14.09c-4.1-4.2-8.434-6.5-12.881-7.253a19.226,19.226,0,0,0-9.184.672c-.549.178-1.043.367-1.475.555l-.182.081c-.274.124-.453.216-.53.259C1.352,6.456.448,5.954.12,4.891A2.4,2.4,0,0,1,.949,2.163l.186-.1A16.369,16.369,0,0,1,3.6,1.061Z" transform="translate(27.889 43.886)"/><path class="a" d="M5.021,4.414A19.655,19.655,0,0,1,19.346.116C26.218.878,33.305,5.441,40.47,14.483a2.63,2.63,0,0,1,.074,2.948,1.282,1.282,0,0,1-2.182.1C31.686,9.105,25.239,4.955,19.094,4.273A17.225,17.225,0,0,0,6.535,8.05,22.761,22.761,0,0,0,3.6,10.709l-.275.3q-.2.221-.361.42l-.233.287-.092.12a1.281,1.281,0,0,1-2.183.024,2.631,2.631,0,0,1-.017-2.95l.11-.147C.795,8.45,1.17,8,1.674,7.453A25.974,25.974,0,0,1,5.021,4.414Z" transform="translate(26.397 37.945)"/><path class="a" d="M86.5.078A2.221,2.221,0,0,1,87.6,2.53l-.028.15-.152.7-.17.751q-.169.732-.378,1.593l-.085.349c-.659,2.685-1.462,5.673-2.413,8.888A188.488,188.488,0,0,1,74.215,41.919C67.71,55.664,60.052,66.541,51.148,73.452c-10.716,8.317-22.774,10.495-36.141,5.465l-.4-.153-.2-.073c-.106-.039-.231-.087-.376-.144l-.112-.045c-.565-.227-1.192-.5-1.865-.836a30.313,30.313,0,0,1-5.657-3.594,23.632,23.632,0,0,1-6.1-7.216,2.591,2.591,0,0,1,.345-2.913,1.306,1.306,0,0,1,2.156.466,20.075,20.075,0,0,0,5.178,6.081,27.533,27.533,0,0,0,5.13,3.256c.526.259,1.018.48,1.468.667l.406.164c.171.067.3.114.383.143l.091.032C28.169,79.667,39.5,77.68,49.61,69.835c8.421-6.536,15.746-16.94,22-30.163A183.71,183.71,0,0,0,81.5,13.408c.866-2.926,1.6-5.655,2.22-8.126l.13-.526c.167-.682.316-1.306.445-1.867l.2-.877.106-.489C84.831.414,85.683-.233,86.5.078Z" transform="translate(0 48.112)"/><path class="a" d="M23.937.151a2.384,2.384,0,0,1,.857,2.713l-.6,1.994c-.478,1.582-1.016,3.345-1.6,5.243l-.84,2.711c-1.4,4.512-2.831,8.983-4.225,13.205l-.578,1.743q-.287.86-.568,1.694l-.28.828c-1.052,3.1-2.036,5.9-2.937,8.33q-.22.6-.443,1.19A163.29,163.29,0,0,1,5.885,55.48c-.818,1.629-1.579,3.066-2.264,4.3l-.342.609-.4.7c-.061.1-.106.181-.136.23a1.291,1.291,0,0,1-2.172.3,2.616,2.616,0,0,1-.281-2.83l.059-.1c.032-.053.1-.168.2-.344l.281-.49q.151-.266.322-.574l.365-.664c.559-1.026,1.167-2.187,1.813-3.474A158.643,158.643,0,0,0,9.971,37.91l.216-.577.216-.582c.885-2.393,1.854-5.145,2.893-8.206l.557-1.653q.422-1.259.856-2.573c1.522-4.612,3.086-9.53,4.618-14.473l.928-3.011c.276-.9.54-1.766.789-2.588l.885-2.938C22.247.24,23.146-.279,23.937.151Z" transform="translate(20.634 0)"/></g><path class="b" d="M44.665,0l-.772,32.955a16.993,16.993,0,0,1-3.808,11.4c-4.734,5.284-13.379,15.782-24.236,32.4,0,0-13.585-19.537-15.849-49.989Z" transform="translate(99.518 2.089)"/><path class="a" d="M17.392,80.931a1.38,1.38,0,0,1-1.125-.658c-.137-.2-.343-.51-.581-.884l-.34-.542c-.554-.895-1.131-1.882-1.715-2.936A103.432,103.432,0,0,1,7.947,63.789,118.2,118.2,0,0,1,.008,29.064a2.267,2.267,0,0,1,.91-2.115L45.582.182A1.209,1.209,0,0,1,46.209,0,1.4,1.4,0,0,1,47.32.641a2.505,2.505,0,0,1,.431,1.514l-.771,32.9,0,.228a19.507,19.507,0,0,1-4.2,12.567l-.174.2A275.31,275.31,0,0,0,18.549,80.225,1.411,1.411,0,0,1,17.392,80.931Zm27.2-75.589h0L3.2,30.144l.059.65a112.937,112.937,0,0,0,7.174,30.424l.237.606A98.868,98.868,0,0,0,16.1,73.409c.432.779.862,1.523,1.277,2.212l.033.053.994-1.5A271.242,271.242,0,0,1,40.3,45.226l.327-.366A13.2,13.2,0,0,0,43.1,40.44a15.77,15.77,0,0,0,.8-5.33v-.132l.694-29.637Z" transform="translate(97.974 0)"/></g><g transform="translate(67.272)"><path class="b" d="M5.043,0s10.754.348,8.8,13.349S0,18.772,0,18.772L1.647.278Z" transform="translate(84.732 79.703)"/><path class="a" d="M8.47,25.14a13.56,13.56,0,0,1-5.23-1.193,17.408,17.408,0,0,1-2.156-1.079l-.2-.123a2.3,2.3,0,0,1-.874-2.136L1.658,2.115A1.841,1.841,0,0,1,3.1.282L6.493,0c.033,0,.065,0,.1,0h.043L6.9.018l.2.021.23.028A11.8,11.8,0,0,1,8.706.34,11.4,11.4,0,0,1,12.6,2.155a10.615,10.615,0,0,1,3.843,5.371A18.023,18.023,0,0,1,16.9,15.85,12.879,12.879,0,0,1,14,22.825a7.211,7.211,0,0,1-5.379,2.314ZM6.6,4.173h0l-2.036.167L3.217,19.529l.188.093c.18.086.343.162.5.231l.26.113a11.235,11.235,0,0,0,4.309,1h.111a4.583,4.583,0,0,0,3.488-1.412,8.374,8.374,0,0,0,1.8-4.536,12.616,12.616,0,0,0-.216-5.693,6.712,6.712,0,0,0-2.526-3.5A8.8,8.8,0,0,0,8.125,4.437a8.717,8.717,0,0,0-1.4-.254L6.6,4.174Z" transform="translate(83.189 77.617)"/><path class="b" d="M25.421.177C22.59-.17,3.14-1.909.927,19.992s0,46.165,1.8,57.22c1.75,11.055,39.056,6.188,41.165,5.214s4.631-4.311,4.631-4.311l5.2-33.651S55.935,3.793,25.421.177Z" transform="translate(33.789 38.228)"/><path class="a" d="M25.219,88.5l-.891,0c-6.717-.053-11.682-.719-15.179-2.034a11.8,11.8,0,0,1-4.381-2.687,7.334,7.334,0,0,1-2-4.03A233.179,233.179,0,0,1,.179,51.907,225.158,225.158,0,0,1,.942,21.8,27.547,27.547,0,0,1,5.184,8.967a19.414,19.414,0,0,1,8.853-7.133A25.206,25.206,0,0,1,22.189.051C22.772.017,23.356,0,23.924,0A26.175,26.175,0,0,1,27.1.187l.417.052A31.137,31.137,0,0,1,36.834,2.91a27.865,27.865,0,0,1,7.461,5.174c4.253,4.113,7.513,9.792,9.69,16.881a67.02,67.02,0,0,1,2.688,14.981c.116,1.676.175,3.31.173,4.854,0,.5-.007.964-.019,1.377l0,.137-.016.391a2.689,2.689,0,0,1-.028.273l-5.2,33.65a2.366,2.366,0,0,1-.431,1.064c-.056.074-.151.2-.29.37l-.341.416c-.508.609-1.024,1.176-1.532,1.685a14.871,14.871,0,0,1-1.931,1.666,7.316,7.316,0,0,1-1.118.658C44.132,87.321,33.355,88.492,25.219,88.5ZM23.925,4.172c-.525,0-1.065.016-1.6.047a22.833,22.833,0,0,0-7.385,1.606A17.425,17.425,0,0,0,10.76,8.238a15.791,15.791,0,0,0-3.263,3.5,18.831,18.831,0,0,0-2.277,4.68A27.755,27.755,0,0,0,4,22.362a219.488,219.488,0,0,0-.737,29.351A227.585,227.585,0,0,0,5.782,78.864c.257,1.627,2.162,3,5.507,3.96a51.773,51.773,0,0,0,13.436,1.508h.349c3.565,0,8.088-.241,12.41-.662a41.4,41.4,0,0,0,7.456-1.13,4.588,4.588,0,0,0,.691-.41,11.8,11.8,0,0,0,1.515-1.315c.436-.437.882-.928,1.326-1.459l.186-.227,5.074-32.854.009-.263c.011-.377.017-.786.017-1.216v-.451c-.009-1.283-.063-2.631-.158-4.008a61.6,61.6,0,0,0-2.466-13.772A42.212,42.212,0,0,0,47.5,18,29.165,29.165,0,0,0,42.316,11.3a24.933,24.933,0,0,0-6.852-4.62,29.1,29.1,0,0,0-8.639-2.341A23.9,23.9,0,0,0,23.925,4.172Z" transform="translate(32.245 36.14)"/><path class="f" d="M50.634,0c-1.852,2.433-6.741,16.339-7.976,22.8a81.656,81.656,0,0,0-29.433-5.979S3.756,17.034,0,18.494c0,0,.72,23.013,8.387,34.972,7.616,11.958,23.825,8.691,31.44,1.6s8.9-10.5,10.652-18.216C52.28,29.2,57.014.626,57.014.626Z" transform="translate(33.275 82.415)"/><path class="a" d="M88.849,87.351A97.481,97.481,0,0,0,95.95,65.8C97.8,55.439,94.3,44.593,87.2,39.935c-5.918-3.893-10.343-.9-10.343-.9s6.329-14.461-3.087-27.324c-3.293-4.519-7.924-7.022-12.607-6.883-11.526.417-15.128,13.558-15.128,13.558S33.79-12.349,8.422,5.658C5.849,7.466,2.967,12.541,1.578,16.018c-8.439,20.788,19.039,45.609,33.4,47.625,15.746,2.225,25.008-1.251,30.051-6.4C61.217,60.236,65.385,92.148,88.849,87.351Z" transform="translate(0 0)"/><path class="a" d="M8.309,1.506C8.808.2,9.983-.365,10.987.248a3.241,3.241,0,0,1,1.026,3.681l-.077.218c-.088.239-.211.539-.37.885a13.611,13.611,0,0,1-1.248,2.179c-2.264,3.2-5.387,4.422-9.044,2.382A3.193,3.193,0,0,1,.156,5.962c.434-1.42,1.637-2.1,2.688-1.509,1.965,1.1,3.334.56,4.5-1.085A7.973,7.973,0,0,0,8.068,2.1l.093-.209.1-.255Z" transform="translate(47.992 112.449)"/><path class="a" d="M3.2,2.12C3.469.628,4.584-.285,5.688.081A2.907,2.907,0,0,1,7.22,3.3l-.023.14L4.621,17.65l4.232.581c1.1.15,1.9,1.438,1.848,2.909l-.008.138c-.111,1.482-1.064,2.573-2.153,2.5l-.1-.011-6.586-.9C.642,22.694-.19,21.161.038,19.569l.022-.137Z" transform="translate(41.405 87.629)"/><path class="a" d="M3.2,0C4.967,0,6.4.688,6.4,1.54S4.962,3.085,3.2,3.087,0,2.4,0,1.547,1.434,0,3.2,0Z" transform="matrix(0.004, -1, 1, 0.004, 38.645, 90.919)"/><path class="a" d="M3.2,0C4.967,0,6.4.688,6.4,1.54S4.962,3.085,3.2,3.087,0,2.4,0,1.547,1.434,0,3.2,0Z" transform="matrix(0.004, -1, 1, 0.004, 53.272, 90.688)"/><path class="a" d="M1.767.136a7.265,7.265,0,0,1,6.7,2.228A10.927,10.927,0,0,1,9.807,3.98l.168.254c.156.243.275.449.357.609a3.442,3.442,0,0,1-.509,3.872,1.727,1.727,0,0,1-2.8-.569l-.085-.153c-.027-.045-.08-.13-.158-.244a6.085,6.085,0,0,0-.746-.895,3.946,3.946,0,0,0-3.5-1.243l-.181.031C1.224,5.86.182,4.8.021,3.283S.642.353,1.767.136Z" transform="translate(53.755 69.375)"/><path class="a" d="M4.1.267A5.955,5.955,0,0,1,7.248.16l.224.053c.174.044.315.088.42.126A2.982,2.982,0,0,1,9.347,3.746c-.285,1.437-1.354,2.308-2.418,2l-.162-.051c-.041-.011-.1-.027-.177-.043a3.009,3.009,0,0,0-1.526.026A1.445,1.445,0,0,0,4.056,6.852l-.033.134c-.34,1.466-1.495,2.281-2.58,1.822A3.053,3.053,0,0,1,.095,5.322C.736,2.557,2.211.88,4.1.267Z" transform="translate(34.51 68.822)"/></g><path class="d" d="M120.976.418,45.8,0c-7.2-.07-13.07,7.856-13.122,17.59l-.051,23.917C14.666,41.368.052,60.975,0,85.239c-.1,24.265,14.408,44.01,32.366,44.079l-.051,15.852c-.051,9.734,5.815,17.66,13.019,17.729l75.178.417c7.2.07,13.07-7.856,13.122-17.59l.412-127.58C133.994,8.413,128.18.487,120.976.418Z" transform="translate(0 141.65)"/><g transform="translate(17.362 264.521)"><path class="b" d="M0,17.736C.051,17.458,11.372-.41,11.732.007s15.849,9.734,16.209,10.5c.36.7.926,4.936-.617,8.83S24.03,32.2,17.032,32.893,0,17.736,0,17.736Z" transform="translate(9.602 13.463)"/><path class="b" d="M18.73,15.445S20.068,3.139,17.958.219,4.065,24.553,0,26.43" transform="translate(11.506 2.128)"/><path class="a" d="M17.256.988c1.171-1.127,2.37-1.457,3.351-.1,1.2,1.659,1.616,4.616,1.629,8.753.006,1.833-.076,3.78-.216,5.721l-.058.762q-.015.184-.03.362l-.1,1.058c-.014.143-.026.254-.034.331-.124,1.14-.908,1.928-1.752,1.76a2.079,2.079,0,0,1-1.3-2.367l.039-.383.022-.236c.047-.509.095-1.078.139-1.692.131-1.811.207-3.623.2-5.3a25.5,25.5,0,0,0-.373-4.78l-.037-.167-.042.048a19.833,19.833,0,0,0-1.4,1.931l-.463.717c-.959,1.507-1.857,3.056-3.824,6.576l-2.466,4.426C6,26.528,3.938,29.656,2.043,30.531c-.807.373-1.684-.209-1.96-1.3A2.366,2.366,0,0,1,.96,26.627l.085-.043c1.017-.47,3.206-3.856,7.188-10.969l2.175-3.9c2.2-3.95,3.129-5.541,4.22-7.24l.2-.314A18.636,18.636,0,0,1,17.256.988Z" transform="translate(9.962 0)"/><path class="b" d="M17.856,13.786s2.83-8.969-.926-13.279C13.224-3.8,4.014,20.738,0,23.867" transform="translate(18.659 5.942)"/><path class="a" d="M13.662,2.649c2.135-2.64,4.125-3.557,5.811-1.6a11.376,11.376,0,0,1,2.459,6.931,24.946,24.946,0,0,1-.533,6.433c-.212,1.035-.426,1.838-.579,2.323-.334,1.06-1.241,1.552-2.025,1.1a2.385,2.385,0,0,1-.848-2.623l.112-.387q.022-.08.049-.179c.107-.4.215-.853.316-1.346a19.608,19.608,0,0,0,.431-4.986,6.841,6.841,0,0,0-1.276-3.963l-.123-.146c-.013-.008-.033.007-.163.067a5.332,5.332,0,0,0-1.546,1.448,50.842,50.842,0,0,0-4.475,7.221l-.73,1.353L7.946,19.175c-3.4,6.342-4.183,7.507-5.631,8.635-.738.576-1.683.233-2.109-.764A2.522,2.522,0,0,1,.773,24.2l.074-.059c.961-.79,1.947-2.433,5.423-8.955l1.471-2.767c.206-.387.4-.745.582-1.088l.272-.5A55.638,55.638,0,0,1,13.662,2.649Z" transform="translate(17.115 3.805)"/><path class="b" d="M13.688,19.841S18.422,3.781,15.128.374,6.432,17.825,0,22.622" transform="translate(24.525 10.176)"/><path class="a" d="M14.287.619a2.3,2.3,0,0,1,3.324.187c1.948,2.015,2.144,5.974,1.346,11.476-.235,1.621-.557,3.328-.943,5.078-.252,1.141-.518,2.245-.787,3.284l-.135.514c-.088.333-.172.64-.249.918l-.178.625c-.315,1.07-1.213,1.592-2.005,1.166a2.38,2.38,0,0,1-.863-2.709l.1-.361.165-.6q.058-.214.12-.449c.3-1.119.593-2.329.87-3.583.36-1.631.657-3.212.872-4.69L16,10.918c.45-3.407.352-5.81-.148-6.637l-.03-.046-.02.015a6.89,6.89,0,0,0-1.332,1.744l-.112.187-.192.33c-.454.794-.957,1.764-1.58,3.036l-.512,1.059c-.55,1.149-1.725,3.618-2.117,4.422l-.361.737c-2.8,5.674-4.909,8.98-7.311,10.771-.746.557-1.685.19-2.1-.818A2.506,2.506,0,0,1,.8,22.884c1.831-1.365,3.717-4.326,6.249-9.464l.561-1.153c.615-1.279,1.849-3.872,2.124-4.44L10.04,7.2c.748-1.526,1.344-2.662,1.911-3.62A10.284,10.284,0,0,1,14.287.619Z" transform="translate(22.981 8.089)"/><path class="b" d="M10.832,25.586h0A23.038,23.038,0,0,1,11.6,15.3c1.184-3.754,2.573-8.76,2.676-12.028.206-5.632-6.586-2.99-6.9.487s-1.6,3.268-4.58,6.883C-.18,14.184.386,28.367.386,28.367s-2.624,7.3,5.815,15.991,17.5,1.947,17.5,1.947,16.363-8.135,16.363-24.056-4.322,7.3-12.5,13.836" transform="translate(1.549 2.415)"/><path class="a" d="M12.316.126c2.848-.651,5.2,1.233,5.054,5.317a49.771,49.771,0,0,1-2.539,11.924l-.264.846a20.269,20.269,0,0,0-.674,9.049,2.15,2.15,0,0,1-1.211,2.454c-.836.226-1.649-.507-1.816-1.636a25.887,25.887,0,0,1,.757-11.17l.336-1.078A46.628,46.628,0,0,0,14.287,5.252c.036-.98-.327-1.271-1.455-1.013A3.319,3.319,0,0,0,10.466,6.09a7.61,7.61,0,0,1-1.654,4.536l-.12.142c-.106.122-2.375,2.379-3.318,3.522-.761.9-1.378,3.506-1.691,7.141-.217,2.521-.275,5.2-.237,7.619l.012.6c.008.337.015.573.02.692a2.754,2.754,0,0,1-.108.885l-.045.138c-.006.017-.043.148-.089.383a10.234,10.234,0,0,0,.256,4.534,19.544,19.544,0,0,0,5.195,8.5,16.2,16.2,0,0,0,1.474,1.347,11.288,11.288,0,0,0,12.363,1.524,13.466,13.466,0,0,0,1.305-.665l.19-.113c.218-.133.371-.234.452-.292l.03-.022a1.425,1.425,0,0,1,.14-.092l.226-.118q.156-.083.351-.191l.134-.075c.533-.3,1.13-.666,1.774-1.09a35.877,35.877,0,0,0,5.393-4.349c4.754-4.676,7.546-10.14,7.546-16.312v-.324l-.007-.715-.914,1.955c-.9,1.936-1.858,4.007-2.36,5.027l-.114.229c-2.22,4.385-4.373,7.538-6.778,9.459-.734.586-1.681.258-2.114-.734a2.53,2.53,0,0,1,.543-2.857c1.933-1.544,3.814-4.3,5.8-8.223l.1-.2c.923-1.881,3.984-8.658,4.646-9.7a3.072,3.072,0,0,1,1.46-1.392c.972-.348,1.822.31,2.258,1.447.425,1.107.569,2.923.569,6.024,0,7.759-3.344,14.3-8.817,19.685a38.909,38.909,0,0,1-5.856,4.726c-.7.46-1.348.856-1.934,1.188l-.418.232-.24.127-.087.062-.22.148a14.86,14.86,0,0,1-1.893,1.027l-.2.09a13.626,13.626,0,0,1-14.906-1.9A19.42,19.42,0,0,1,6.814,48.1,23.7,23.7,0,0,1,.581,37.676a15.741,15.741,0,0,1-.331-6.99c.037-.19.075-.363.114-.519L.38,30.1l-.009-.326A83.384,83.384,0,0,1,.615,20.95c.387-4.5,1.155-7.809,2.593-9.637l.115-.141C4.4,9.872,6.7,7.577,6.683,7.6A2.888,2.888,0,0,0,7.4,5.593,6.4,6.4,0,0,1,12.316.126Z" transform="translate(0 0.329)"/></g><g transform="translate(99.055 266.537)"><path class="b" d="M28.346,17.736C28.295,17.458,16.974-.41,16.614.007S.766,9.741.405,10.506c-.36.7-.926,4.936.617,8.83S4.316,32.2,11.314,32.893,28.346,17.736,28.346,17.736Z" transform="translate(5.152 13.463)"/><path class="b" d="M.418,15.445S-.92,3.139,1.19.219,15.083,24.553,19.149,26.43" transform="translate(12.446 2.128)"/><path class="a" d="M1.629.889C2.611-.469,3.81-.139,4.981.988A17.612,17.612,0,0,1,7.241,3.9l.368.567c1.047,1.63,1.94,3.161,3.956,6.768L14,15.615c3.924,7.009,6.108,10.4,7.143,10.946l.045.022a2.322,2.322,0,0,1,.962,2.648c-.276,1.09-1.153,1.672-1.96,1.3l-.141-.069c-1.858-.964-3.924-4.135-8.355-12.05l-3.31-5.933C6.91,9.854,6.139,8.548,5.279,7.209l-.2-.3A22.514,22.514,0,0,0,3.637,4.877L3.5,4.714l0,.013a23.547,23.547,0,0,0-.405,4.666l0,.267c-.005,1.675.071,3.487.2,5.3.027.369.054.721.082,1.053l.079.874c.017.178.03.307.039.383a2.079,2.079,0,0,1-1.3,2.367c-.844.167-1.628-.621-1.752-1.76l-.07-.705L.3,16.487c-.03-.356-.06-.731-.088-1.124C.076,13.423-.006,11.476,0,9.643.013,5.505.431,2.548,1.629.889Z" transform="translate(10.902 0)"/><path class="b" d="M1.023,13.786S-1.808,4.817,1.949.506C5.654-3.8,14.864,20.738,18.878,23.867" transform="translate(5.564 5.942)"/><path class="a" d="M2.486,1.06C4.18-.91,6.169.007,8.3,2.647a51.823,51.823,0,0,1,4.681,7.466l.657,1.212c.185.343.377.7.582,1.088l2.11,3.962c3.046,5.686,3.935,7.1,4.859,7.819a2.522,2.522,0,0,1,.566,2.849c-.426,1-1.37,1.34-2.109.764l-.258-.208c-1.413-1.18-2.342-2.727-6.3-10.168L11.426,14.3c-.191-.356-.371-.691-.546-1.015l-.364-.668A48.962,48.962,0,0,0,6.221,5.725,5.332,5.332,0,0,0,4.675,4.276L4.54,4.215c-.017-.006-.025-.006-.032,0l-.015.017a6.67,6.67,0,0,0-1.38,4.088A19.608,19.608,0,0,0,3.544,13.3c.081.395.166.763.251,1.1l.113.425.079.273a2.407,2.407,0,0,1-.815,2.737c-.784.452-1.691-.041-2.025-1.1C.994,16.253.779,15.45.568,14.415A24.946,24.946,0,0,1,.035,7.982,11.372,11.372,0,0,1,2.486,1.06Z" transform="translate(4.019 3.808)"/><path class="b" d="M2.606,19.841S-2.128,3.781,1.165.374s8.7,17.451,15.128,22.248" transform="translate(2.334 10.246)"/><path class="a" d="M1.786.806A2.3,2.3,0,0,1,5.11.619,10.284,10.284,0,0,1,7.446,3.575l.229.393c.538.942,1.116,2.063,1.834,3.537l2.507,5.233.334.682c2.532,5.137,4.418,8.1,6.249,9.464a2.506,2.506,0,0,1,.605,2.834c-.412,1.008-1.351,1.375-2.1.818C14.654,24.707,12.5,21.3,9.617,15.4l-.724-1.5c-.655-1.368-1.584-3.32-1.812-3.789l-.275-.564C6.094,8.092,5.539,7.033,5.035,6.181A8.156,8.156,0,0,0,3.658,4.3l-.088-.07-.03.046c-.514.85-.6,3.368-.108,6.929l.038.269c.214,1.478.512,3.059.872,4.69.23,1.045.475,2.06.722,3.016l.148.567q.093.351.177.658l.211.748a2.38,2.38,0,0,1-.863,2.709c-.792.426-1.69-.1-2.005-1.166l-.121-.422c-.074-.263-.155-.556-.24-.876L2.3,21.158c-.314-1.186-.628-2.467-.922-3.8C1,15.61.676,13.9.44,12.282-.358,6.779-.162,2.821,1.786.806Z" transform="translate(0.774 8.158)"/><path class="b" d="M29.227,25.586h0a23.038,23.038,0,0,0-.772-10.29c-1.184-3.754-2.573-8.76-2.676-12.028-.206-5.632,6.586-2.99,6.9.487s1.6,3.268,4.58,6.883,2.418,17.729,2.418,17.729,2.624,7.3-5.815,15.991-17.5,1.947-17.5,1.947S0,38.171,0,22.249s4.322,7.3,12.5,13.836" transform="translate(1.544 2.415)"/><path class="a" d="M25.782,5.458c-.15-4.1,2.206-5.982,5.054-5.332a6.4,6.4,0,0,1,4.916,5.467,2.927,2.927,0,0,0,.642,1.918l.076.09c-.02-.023,2.288,2.272,3.36,3.571,1.508,1.826,2.305,5.182,2.7,9.756a81.773,81.773,0,0,1,.261,8.256l-.015.731-.005.189.016.063q.038.155.076.334l.037.185a15.741,15.741,0,0,1-.331,6.99A23.7,23.7,0,0,1,36.338,48.1a19.422,19.422,0,0,1-1.768,1.615,13.626,13.626,0,0,1-14.906,1.9,14.443,14.443,0,0,1-2.312-1.265l-.088-.062-.333-.178-.325-.181c-.585-.332-1.235-.728-1.934-1.188A38.909,38.909,0,0,1,8.817,44.02C3.344,38.637,0,32.094,0,24.335c0-3.1.144-4.917.569-6.024.436-1.137,1.286-1.8,2.258-1.447a3.072,3.072,0,0,1,1.46,1.392c.688,1.079,3.971,8.366,4.746,9.9,1.987,3.925,3.868,6.679,5.8,8.223a2.53,2.53,0,0,1,.543,2.857c-.434.992-1.381,1.32-2.114.734-2.329-1.861-4.423-4.878-6.57-9.051l-.208-.407c-.552-1.091-1.942-4.123-3.05-6.49L3.095,23.3v.1q0,.33-.006.691v.245c0,6.173,2.792,11.636,7.546,16.312A35.877,35.877,0,0,0,16.027,45c.552.364,1.069.683,1.541.957l.232.133q.207.118.377.209l.262.138a1.365,1.365,0,0,1,.143.082l.186.131c.087.058.209.137.365.232a13.259,13.259,0,0,0,1.5.778,11.288,11.288,0,0,0,12.363-1.524,16.2,16.2,0,0,0,1.474-1.347,19.544,19.544,0,0,0,5.195-8.5,10.234,10.234,0,0,0,.256-4.534l-.032-.157c-.03-.137-.052-.214-.056-.227a2.725,2.725,0,0,1-.153-1.024l.014-.455q0-.107.006-.232a77.458,77.458,0,0,0-.229-8.238c-.315-3.614-.931-6.208-1.7-7.137l-.154-.182c-1.006-1.173-3.053-3.21-3.154-3.326A7.544,7.544,0,0,1,32.686,6.09a3.319,3.319,0,0,0-2.365-1.851c-1.128-.258-1.491.033-1.455,1.027a46.614,46.614,0,0,0,2.322,10.555l.228.73a25.8,25.8,0,0,1,.87,11.531c-.167,1.13-.98,1.862-1.816,1.636a2.15,2.15,0,0,1-1.211-2.454,20.371,20.371,0,0,0-.584-8.762l-.357-1.145A49.742,49.742,0,0,1,25.782,5.458Z" transform="translate(0 0.329)"/></g></g><path class="a" d="M853.978,0c.852,0,1.544.934,1.544,2.086a1.92,1.92,0,0,1-1.453,2.082l-.091,0H1.544C.691,4.172,0,3.238,0,2.086A1.92,1.92,0,0,1,1.453,0l.091,0Z" transform="translate(0 346.544)"/></g></g></svg>