<svg xmlns="http://www.w3.org/2000/svg" width="870.761" height="874.496" viewBox="0 0 870.761 874.496"><defs><style>.a{fill:#f19494;}</style></defs><path class="a" d="M500,255.523c64.063-8.388,130.217-42.86,188.493-14.961,61,29.205,109.328,93.263,115.712,160.6,6.128,64.64-66.45,107.863-84.344,170.279-19.025,66.361,21.925,147.611-22.049,200.828C652.476,827.131,571.154,835.828,500,837.513c-72.481,1.716-147.566-11.13-204.736-55.718-56.176-43.813-81.4-113.973-100.746-182.537-18.656-66.124-37.05-138.933-7.448-200.934,28.473-59.637,97.061-85.255,157.183-112.69,49.312-22.5,102-23.073,155.747-30.109" transform="translate(-286.557 480.617) rotate(-51)"/></svg>