<svg xmlns="http://www.w3.org/2000/svg" width="23.846" height="16.992" viewBox="0 0 23.846 16.992"><defs><style>.a{stroke:#000;opacity:0.61;}</style></defs><path class="a" d="M19.564,15.5a2.856,2.856,0,1,0-2.856-2.856A2.847,2.847,0,0,0,19.564,15.5ZM11,14.354a3.427,3.427,0,1,0-3.427-3.427A3.413,3.413,0,0,0,11,14.354Zm8.567,3.427c-2.09,0-6.283,1.051-6.283,3.141v2.57H25.846v-2.57C25.846,18.832,21.654,17.781,19.564,17.781ZM11,16.639c-2.662,0-8,1.337-8,4v2.856h8v-2.57c0-.971.377-2.673,2.707-3.964A14.031,14.031,0,0,0,11,16.639Z" transform="translate(-2.5 -7)"/></svg>