<svg xmlns="http://www.w3.org/2000/svg" width="38.01" height="49.699" viewBox="0 0 38.01 49.699"><defs><style>.a{fill:none;}.b{stroke:#000;}</style></defs><g transform="translate(0 0.5)"><g transform="translate(0 0)"><rect class="a" width="11.1" height="3" transform="translate(14.206 3)"/><path class="a" d="M15.912,10.25C9.471,10.25,4.25,15.206,4.25,21.32s5.221,11.07,11.662,11.07,11.662-4.956,11.662-11.07S22.35,10.257,15.912,10.25Zm0,19.679a8.849,8.849,0,0,1-9.071-8.61,8.849,8.849,0,0,1,9.071-8.61,8.849,8.849,0,0,1,9.071,8.61A8.859,8.859,0,0,1,15.912,29.929Z" transform="translate(3.093 6.56)"/><path class="a" d="M14.333,15.533l-2.187,2.851-1.364-1.3a1.345,1.345,0,0,0-1.832,0,1.186,1.186,0,0,0,0,1.739l2.436,2.313a1.328,1.328,0,0,0,.916.36c.034,0,.067,0,.1,0a1.317,1.317,0,0,0,.947-.5l3.079-4.013a1.19,1.19,0,0,0-.285-1.718,1.341,1.341,0,0,0-1.81.271Z" transform="translate(6.237 9.616)"/><path class="b" d="M7.728,9.84H21.55A1.685,1.685,0,0,0,23.277,8.2V1.64A1.685,1.685,0,0,0,21.55,0H7.728A1.685,1.685,0,0,0,6,1.64V8.2A1.685,1.685,0,0,0,7.728,9.84ZM9.455,3.28H19.822V6.56H9.455Z" transform="translate(4.366 0)"/><path d="M32.827,2H30.235a.843.843,0,0,0-.864.82v4.1a3.371,3.371,0,0,1-3.455,3.28H12.094A3.371,3.371,0,0,1,8.639,6.92V2.82A.843.843,0,0,0,7.775,2H5.183A5.057,5.057,0,0,0,0,6.92V43a5.057,5.057,0,0,0,5.183,4.92H32.827A5.057,5.057,0,0,0,38.01,43V6.92A5.057,5.057,0,0,0,32.827,2ZM19,37.669c-6.441,0-11.662-4.956-11.662-11.07S12.564,15.53,19,15.53,30.667,20.486,30.667,26.6,25.443,37.662,19,37.669Z" transform="translate(0 1.28)"/><path class="b" d="M14.821,11.75A8.849,8.849,0,0,0,5.75,20.36a8.849,8.849,0,0,0,9.071,8.61,8.849,8.849,0,0,0,9.071-8.61A8.859,8.859,0,0,0,14.821,11.75Zm3.66,7.327L15.4,23.09a1.317,1.317,0,0,1-.947.5c-.034,0-.067,0-.1,0a1.328,1.328,0,0,1-.916-.36L11,20.924a1.186,1.186,0,0,1,0-1.739,1.345,1.345,0,0,1,1.832,0l1.364,1.3,2.187-2.851a1.341,1.341,0,0,1,1.81-.271,1.19,1.19,0,0,1,.285,1.718Z" transform="translate(4.184 7.519)"/></g></g></svg>