<svg xmlns="http://www.w3.org/2000/svg" xmlns:xlink="http://www.w3.org/1999/xlink" width="241" height="241" viewBox="0 0 241 241"><defs><style>.a{fill:url(#a);}.b{fill:#fff;}</style><radialGradient id="a" cx="0.347" cy="0.321" r="1.337" gradientTransform="translate(0.311 -0.133) rotate(45) scale(1 0.921)" gradientUnits="objectBoundingBox"><stop offset="0" stop-color="#fbfbfb"/><stop offset="0.115" stop-color="#c1d7ed"/><stop offset="1" stop-color="#06005e"/></radialGradient></defs><g transform="translate(-1701 -277)"><circle class="a" cx="120.5" cy="120.5" r="120.5" transform="translate(1701 277)"/><path class="b" d="M80.5,3.422c-1.117.214-48.009,9.317-49.007,9.507a2.107,2.107,0,0,0-1.925,1.9V71.894A6.556,6.556,0,0,1,29,74.674a6.333,6.333,0,0,1-3.826,3.018c-.784.261-1.854.5-3.113.784C16.328,79.76,6.75,81.947,6.75,90.788c0,7.391,5.324,10.719,9.911,11.289a11.587,11.587,0,0,0,1.687.166h0c1.592,0,8.556-.784,12.168-3.137,2.614-1.711,5.728-5.086,5.728-11.36v-50.5a1.886,1.886,0,0,1,1.521-1.854l36.125-7.3a1.9,1.9,0,0,1,2.282,1.854v31.11a6.813,6.813,0,0,1-.594,3.185,6.317,6.317,0,0,1-3.85,3.018c-.784.261-2.091.5-3.351.784-5.728,1.283-15.306,3.446-15.306,12.287,0,8.009,6.037,11.218,9.934,11.479a19.64,19.64,0,0,0,4.611-.214,27.248,27.248,0,0,0,8.675-3.09,12.528,12.528,0,0,0,6.536-11.456V5.252A1.883,1.883,0,0,0,80.5,3.422Z" transform="translate(1773.301 378.891) rotate(-16)"/></g></svg>