<svg xmlns="http://www.w3.org/2000/svg" xmlns:xlink="http://www.w3.org/1999/xlink" width="70" height="70" viewBox="0 0 70 70"><defs><style>.a,.c,.f{fill:none;}.a,.c{stroke:#ececec;stroke-width:6px;}.b{clip-path:url(#a);}.c{stroke-linejoin:bevel;}.d{fill:#ececec;stroke:#e8e8e8;}.e{stroke:none;}.g{filter:url(#h);}.h{filter:url(#f);}.i{filter:url(#d);}.j{filter:url(#b);}</style><clipPath id="a"><rect class="a" width="70" height="70" rx="34" transform="translate(1425 277)"/></clipPath><filter id="b" x="-6" y="-7" width="94" height="94" filterUnits="userSpaceOnUse"><feOffset dx="6" dy="5" input="SourceAlpha"/><feGaussianBlur stdDeviation="4" result="c"/><feFlood flood-opacity="0.4"/><feComposite operator="in" in2="c"/><feComposite in="SourceGraphic"/></filter><filter id="d" x="-14.5" y="-13.5" width="91" height="91" filterUnits="userSpaceOnUse"><feOffset dx="-4" dy="-3" input="SourceAlpha"/><feGaussianBlur stdDeviation="3.5" result="e"/><feFlood flood-color="#fff"/><feComposite operator="in" in2="e"/><feComposite in="SourceGraphic"/></filter><filter id="f" x="15.826" y="15" width="44.449" height="42.19" filterUnits="userSpaceOnUse"><feOffset dx="3" input="SourceAlpha"/><feGaussianBlur stdDeviation="2.5" result="g"/><feFlood flood-opacity="0.412"/><feComposite operator="in" in2="g"/><feComposite in="SourceGraphic"/></filter><filter id="h" x="9.826" y="13" width="44.449" height="42.19" filterUnits="userSpaceOnUse"><feOffset dx="-3" dy="-2" input="SourceAlpha"/><feGaussianBlur stdDeviation="2.5" result="i"/><feFlood flood-color="#fff"/><feComposite operator="in" in2="i"/><feComposite in="SourceGraphic"/></filter></defs><g transform="translate(-368 -735)"><g class="b" transform="translate(-1057 458)"><g transform="translate(1425 277)"><g class="j" transform="matrix(1, 0, 0, 1, 0, 0)"><g class="c"><rect class="e" width="70" height="70" rx="34"/><rect class="f" x="3" y="3" width="64" height="64" rx="31"/></g></g><g class="i" transform="matrix(1, 0, 0, 1, 0, 0)"><g class="c"><rect class="e" width="70" height="70" rx="34"/><rect class="f" x="3" y="3" width="64" height="64" rx="31"/></g></g></g></g><g transform="translate(388.826 758)"><g class="h" transform="matrix(1, 0, 0, 1, -20.83, -23)"><path class="d" d="M12.156,24.185C4.833,17.516,0,13.193,0,7.806A7.792,7.792,0,0,1,1.982,2.548,9.694,9.694,0,0,1,3.8,1.119,10.337,10.337,0,0,1,6.182.184L6.166.169A8.33,8.33,0,0,1,7.828,0a8.442,8.442,0,0,1,6.4,2.975A8.444,8.444,0,0,1,20.627,0a7.7,7.7,0,0,1,7.821,7.8c0,3.223-1.725,6.06-4.681,9.248l.013.012L22.14,18.686l-1.916,1.88c-1.2,1.132-2.523,2.331-3.931,3.612l-2.065,1.843Z" transform="translate(20.83 23)"/></g><g class="g" transform="matrix(1, 0, 0, 1, -20.83, -23)"><path class="d" d="M12.156,24.185C4.833,17.516,0,13.193,0,7.806A7.792,7.792,0,0,1,1.982,2.548,9.694,9.694,0,0,1,3.8,1.119,10.337,10.337,0,0,1,6.182.184L6.166.169A8.33,8.33,0,0,1,7.828,0a8.442,8.442,0,0,1,6.4,2.975A8.444,8.444,0,0,1,20.627,0a7.7,7.7,0,0,1,7.821,7.8c0,3.223-1.725,6.06-4.681,9.248l.013.012L22.14,18.686l-1.916,1.88c-1.2,1.132-2.523,2.331-3.931,3.612l-2.065,1.843Z" transform="translate(20.83 23)"/></g><path class="d" d="M12.156,24.185C4.833,17.516,0,13.193,0,7.806A7.792,7.792,0,0,1,1.982,2.548,9.694,9.694,0,0,1,3.8,1.119,10.337,10.337,0,0,1,6.182.184L6.166.169A8.33,8.33,0,0,1,7.828,0a8.442,8.442,0,0,1,6.4,2.975A8.444,8.444,0,0,1,20.627,0a7.7,7.7,0,0,1,7.821,7.8c0,3.223-1.725,6.06-4.681,9.248l.013.012L22.14,18.686l-1.916,1.88c-1.2,1.132-2.523,2.331-3.931,3.612l-2.065,1.843Z"/></g></g></svg>