<svg xmlns="http://www.w3.org/2000/svg" xmlns:xlink="http://www.w3.org/1999/xlink" width="241" height="241" viewBox="0 0 241 241"><defs><style>.a{fill:url(#a);}.b{fill:#fff;}</style><radialGradient id="a" cx="0.347" cy="0.321" r="0.995" gradientTransform="matrix(0.035, 0.999, -0.921, 0.032, 0.63, -0.036)" gradientUnits="objectBoundingBox"><stop offset="0" stop-color="#fbfbfb"/><stop offset="0.115" stop-color="#c1d7ed"/><stop offset="1" stop-color="#06005e"/></radialGradient></defs><g transform="translate(-1625 -928)"><circle class="a" cx="120.5" cy="120.5" r="120.5" transform="translate(1625 928)"/><path class="b" d="M48.177,3.409c-.8.153-20.061,4.1-20.775,4.233A1.507,1.507,0,0,0,26.024,9h0v43.37a4.689,4.689,0,0,1-.408,1.989,4.53,4.53,0,0,1-2.737,2.159c-.561.187-1.326.357-2.227.561C16.555,58,9.7,59.563,9.7,65.888a7.886,7.886,0,0,0,5.95,8.008,12.772,12.772,0,0,0,2.346.17c1.394,0,6.12-.561,8.7-2.244a9.159,9.159,0,0,0,4.1-8.127V24.643a1.349,1.349,0,0,1,1.088-1.326l15.777-3.23a2.73,2.73,0,0,0,2.176-2.669V4.7A1.344,1.344,0,0,0,48.177,3.409Z" transform="matrix(0.883, 0.469, -0.469, 0.883, 1737.32, 989.062)"/></g></svg>