<svg xmlns="http://www.w3.org/2000/svg" xmlns:xlink="http://www.w3.org/1999/xlink" width="70" height="70" viewBox="0 0 70 70"><defs><style>.a,.e{fill:none;}.a{stroke:#ececec;stroke-width:6px;}.b{clip-path:url(#a);}.c{fill:#ececec;stroke:#e8e8e8;}.d{stroke:none;}.f{filter:url(#h);}.g{filter:url(#f);}.h{filter:url(#d);}.i{filter:url(#b);}</style><clipPath id="a"><rect class="a" width="70" height="70" rx="34" transform="translate(1425 277)"/></clipPath><filter id="b" x="-6" y="-7" width="94" height="94" filterUnits="userSpaceOnUse"><feOffset dx="6" dy="5" input="SourceAlpha"/><feGaussianBlur stdDeviation="4" result="c"/><feFlood flood-opacity="0.329"/><feComposite operator="in" in2="c"/><feComposite in="SourceGraphic"/></filter><filter id="d" x="-14.5" y="-13.5" width="91" height="91" filterUnits="userSpaceOnUse"><feOffset dx="-4" dy="-3" input="SourceAlpha"/><feGaussianBlur stdDeviation="3.5" result="e"/><feFlood flood-color="#fff"/><feComposite operator="in" in2="e"/><feComposite in="SourceGraphic"/></filter><filter id="f" x="16.488" y="16.5" width="40.464" height="37.021" filterUnits="userSpaceOnUse"><feOffset dx="2" dy="1" input="SourceAlpha"/><feGaussianBlur stdDeviation="2" result="g"/><feFlood flood-opacity="0.329"/><feComposite operator="in" in2="g"/><feComposite in="SourceGraphic"/></filter><filter id="h" x="12.988" y="16" width="37.464" height="34.021" filterUnits="userSpaceOnUse"><feOffset dx="-3" dy="-1" input="SourceAlpha"/><feGaussianBlur stdDeviation="1.5" result="i"/><feFlood flood-color="#fff"/><feComposite operator="in" in2="i"/><feComposite in="SourceGraphic"/></filter></defs><g transform="translate(-464 -736)"><g class="b" transform="translate(-961 459)"><g transform="translate(1425 277)"><g class="i" transform="matrix(1, 0, 0, 1, 0, 0)"><g class="a"><rect class="d" width="70" height="70" rx="34"/><rect class="e" x="3" y="3" width="64" height="64" rx="31"/></g></g><g class="h" transform="matrix(1, 0, 0, 1, 0, 0)"><g class="a"><rect class="d" width="70" height="70" rx="34"/><rect class="e" x="3" y="3" width="64" height="64" rx="31"/></g></g></g></g><g transform="translate(366.784 758)"><g class="g" transform="matrix(1, 0, 0, 1, 97.22, -22)"><path class="c" d="M13.726,2.25C6.145,2.25,0,7.242,0,13.4A9.9,9.9,0,0,0,3.056,20.41,13.64,13.64,0,0,1,.118,25.547a.426.426,0,0,0-.08.466.42.42,0,0,0,.391.257,12.262,12.262,0,0,0,7.539-2.756,16.352,16.352,0,0,0,5.759,1.04c7.582,0,13.726-4.992,13.726-11.152S21.308,2.25,13.726,2.25Z" transform="translate(21 19.75)"/></g><g class="f" transform="matrix(1, 0, 0, 1, 97.22, -22)"><path class="c" d="M13.726,2.25C6.145,2.25,0,7.242,0,13.4A9.9,9.9,0,0,0,3.056,20.41,13.64,13.64,0,0,1,.118,25.547a.426.426,0,0,0-.08.466.42.42,0,0,0,.391.257,12.262,12.262,0,0,0,7.539-2.756,16.352,16.352,0,0,0,5.759,1.04c7.582,0,13.726-4.992,13.726-11.152S21.308,2.25,13.726,2.25Z" transform="translate(21 19.75)"/></g><path class="c" d="M13.726,2.25C6.145,2.25,0,7.242,0,13.4A9.9,9.9,0,0,0,3.056,20.41,13.64,13.64,0,0,1,.118,25.547a.426.426,0,0,0-.08.466.42.42,0,0,0,.391.257,12.262,12.262,0,0,0,7.539-2.756,16.352,16.352,0,0,0,5.759,1.04c7.582,0,13.726-4.992,13.726-11.152S21.308,2.25,13.726,2.25Z" transform="translate(118.216 -2.25)"/></g></g></svg>