<svg xmlns="http://www.w3.org/2000/svg" xmlns:xlink="http://www.w3.org/1999/xlink" width="2429.144" height="432.02" viewBox="0 0 2429.144 432.02"><defs><style>.a{fill:#ececec;}.b{fill:none;stroke:#707070;}.c{font-size:32px;font-family:BerlinSansFB-Reg, Berlin Sans FB;opacity:0.33;}.d{filter:url(#c);}.e{filter:url(#a);}</style><filter id="a" x="9.759" y="5.817" width="883.17" height="426.203" filterUnits="userSpaceOnUse"><feOffset dx="13" dy="14" input="SourceAlpha"/><feGaussianBlur stdDeviation="11" result="b"/><feFlood flood-opacity="0.251"/><feComposite operator="in" in2="b"/><feComposite in="SourceGraphic"/></filter><filter id="c" x="0" y="0" width="849.885" height="399.854" filterUnits="userSpaceOnUse"><feOffset dx="-16" dy="-5" input="SourceAlpha"/><feGaussianBlur stdDeviation="6.5" result="d"/><feFlood flood-color="#fff"/><feComposite operator="in" in2="d"/><feComposite in="SourceGraphic"/></filter></defs><g transform="matrix(1, 0.017, -0.017, 1, -1039.158, -5.749)"><g class="e" transform="matrix(1, -0.02, 0.02, 1, 1039.1, -12.39)"><path class="a" d="M440.594,57.848c-.982-53.684,650.4-75.074,710.269-58.611s221.518,309.639-58.267,339.888c-132.617,14.338-88.755-172.972-294.094-236.4C570.426,32.277,441.576,111.532,440.594,57.848Z" transform="matrix(1, 0.02, -0.02, 1, -404.84, 23.32)"/></g><g class="d" transform="matrix(1, -0.02, 0.02, 1, 1039.1, -12.39)"><path class="a" d="M446.342,59.4C445.274.9,1091.021-17.281,1150.85-.813s220.588,310.025-59.011,340.282C959.31,353.811,1003.927,166.148,798.724,102.7,570.8,32.236,447.411,117.9,446.342,59.4Z" transform="matrix(1, 0.02, -0.02, 1, -404.84, 23.32)"/></g><path class="a" d="M449.017,55.694C465.3-6.417,1096.874-17.389,1157.035-.991s222.6,297.439-58.551,327.568C965.221,340.858,1009.3,165.26,802.956,102.087,573.768,31.918,432.73,117.8,449.017,55.694Z" transform="translate(628.069 17.994)"/><path class="b" d="M368.785,1.625,8.284,16.317" transform="translate(1971.168 114.078) rotate(2)"/><text class="c" transform="matrix(1, -0.017, 0.017, 1, 3381.608, 102.658)"><tspan x="0" y="0">Search</tspan></text></g></svg>