<svg xmlns="http://www.w3.org/2000/svg" xmlns:xlink="http://www.w3.org/1999/xlink" width="241" height="241" viewBox="0 0 241 241"><defs><style>.a{fill:url(#a);}.b{fill:#fff;}</style><radialGradient id="a" cx="0.347" cy="0.321" r="1.126" gradientTransform="matrix(0.231, 0.973, -0.896, 0.213, 0.554, -0.085)" gradientUnits="objectBoundingBox"><stop offset="0" stop-color="#fbfbfb"/><stop offset="0.115" stop-color="#c1d7ed"/><stop offset="1" stop-color="#06005e"/></radialGradient></defs><g transform="translate(-1745 -826)"><circle class="a" cx="120.5" cy="120.5" r="120.5" transform="translate(1745 826)"/><path class="b" d="M27.057,4.5V65.027a20.014,20.014,0,0,0-6.25-.963c-9,0-16.307,6.368-16.307,15.367s7.307,15.3,16.307,15.3S37.16,88.1,37.16,78.491V36.455H84.624V65.027a20.014,20.014,0,0,0-6.25-.963c-9,0-16.307,6.368-16.307,15.367s7.307,15.3,16.307,15.3S94.727,88.1,94.727,78.491V4.5ZM84.624,27.057H37.16V14.6H84.624Z" transform="translate(1811.611 924.932) rotate(-13)"/></g></svg>