<svg xmlns="http://www.w3.org/2000/svg" width="38.012" height="37.065" viewBox="0 0 38.012 37.065"><g transform="translate(0 0)"><path d="M37.421,17.38,20.937,2.721a3.167,3.167,0,0,0-3.963,0L.649,17.38A1.756,1.756,0,0,0,1.6,20.534H3.185V31.853c0,3.9,2.853,7.237,6.34,7.237H12.7a1.639,1.639,0,0,0,1.585-1.856V28.142c0-2.041,1.427-3.9,3.17-3.9h3.17c1.744,0,3.17,1.856,3.17,3.9v9.092a1.745,1.745,0,0,0,1.585,1.856h3.17c3.487,0,6.34-3.34,6.34-7.237V20.534H36.47C37.9,20.534,38.531,18.493,37.421,17.38Z" transform="translate(0.026 -2.025)"/></g></svg>