<svg xmlns="http://www.w3.org/2000/svg" width="103.95" height="154.704" viewBox="0 0 103.95 154.704"><defs><style>.a{font-size:65px;}.a,.b,.c,.d{font-family:ColonnaMT, Colonna MT;}.b,.c,.d{stroke:#000;stroke-linecap:square;stroke-linejoin:bevel;stroke-width:5px;opacity:0;}.b{font-size:114px;}.c{font-size:112px;}.d{font-size:109px;}.e{fill:rgba(48,48,48,0.39);}.f{fill:#1c2121;}.g{fill:#bf2227;}.h{fill:rgba(187,31,31,0.86);}.i{fill:#101010;}.j{fill:#101414;}.k{fill:rgba(0,0,0,0.71);}</style></defs><g transform="translate(-1089.344 -407.753)"><text class="a" transform="translate(1106 482)"><tspan x="0" y="0">M</tspan></text><text class="b" transform="translate(1114.294 518.458)"><tspan x="0" y="0">O</tspan></text><text class="c" transform="translate(1118.2 517.458)"><tspan x="0" y="0">C</tspan></text><text class="d" transform="translate(1131.512 515.458)"><tspan x="0" y="0">I</tspan></text><text class="c" transform="translate(1125.403 517.458)"><tspan x="0" y="0">S</tspan></text><g transform="translate(1089.344 407.753)"><path d="M75.4,46.676a3.562,3.562,0,0,1-3.434-3.74c0-19.448-14.559-35.456-32.552-35.456C21.564,7.48,6.867,23.338,6.867,42.936a3.562,3.562,0,0,1-3.434,3.74A3.562,3.562,0,0,1,0,42.936C0,19.3,17.718,0,39.419,0S78.838,19.3,78.838,42.936A3.562,3.562,0,0,1,75.4,46.676Z" transform="translate(2.61 0)"/><path class="e" d="M39.007,0C19.091,0,2.472,16.307,0,37.251a3.568,3.568,0,0,0,3.159,2.094,3.562,3.562,0,0,0,3.434-3.74C6.593,16.157,21.152.15,39.144.15,57,.15,71.7,16.007,71.7,35.605a3.562,3.562,0,0,0,3.434,3.74,3.735,3.735,0,0,0,3.159-2.094C75.542,16.157,58.922,0,39.007,0Z" transform="translate(3.022 7.33)"/><path class="f" d="M0,21.991c0,3.74,2.884,6.882,6.318,6.882h.137c3.434,0,6.318-3.142,6.318-6.882V6.882C12.773,3.142,9.889,0,6.455,0H6.318C2.884,0,0,3.142,0,6.882Z" transform="translate(71.009 45.03)"/><path class="f" d="M0,0V15.11c0,3.74,2.884,6.882,6.318,6.882h.137c3.434,0,6.318-3.142,6.318-6.882V0" transform="translate(71.009 51.912)"/><path class="g" d="M0,30.519A6.079,6.079,0,0,0,5.769,36.8h5.357a6.079,6.079,0,0,0,5.769-6.283V6.283A6.079,6.079,0,0,0,11.125,0H5.769A6.079,6.079,0,0,0,0,6.283Z" transform="translate(63.18 39.196)"/><path class="h" d="M11.125,0H5.769A6.079,6.079,0,0,0,0,6.283V30.519A6.079,6.079,0,0,0,5.769,36.8h5.357a6.079,6.079,0,0,0,5.769-6.283" transform="translate(63.18 39.196)"/><path class="i" d="M11.125,0H5.769A6.079,6.079,0,0,0,0,6.283V30.519A6.079,6.079,0,0,0,5.769,36.8h5.357" transform="translate(63.18 39.196)"/><path class="j" d="M11.125,0H4.258C1.1,0,0,2.842,0,6.283V30.519A6.079,6.079,0,0,0,5.769,36.8" transform="translate(63.18 39.196)"/><path class="f" d="M12.773,21.991c0,3.74-2.884,6.882-6.318,6.882H6.318C2.884,28.873,0,25.731,0,21.991V6.882C0,3.142,2.884,0,6.318,0h.137c3.434,0,6.318,3.142,6.318,6.882Z" transform="translate(0 45.03)"/><path class="f" d="M12.773,0V15.11c0,3.74-2.884,6.882-6.318,6.882H6.318C2.884,21.991,0,18.85,0,15.11V0" transform="translate(0 51.912)"/><path class="g" d="M16.894,30.519A6.079,6.079,0,0,1,11.125,36.8H5.769A6.079,6.079,0,0,1,0,30.519V6.283A6.079,6.079,0,0,1,5.769,0h5.357a6.079,6.079,0,0,1,5.769,6.283Z" transform="translate(3.708 39.196)"/><path class="g" d="M5.769,0h5.357a6.079,6.079,0,0,1,5.769,6.283V30.519A6.079,6.079,0,0,1,11.125,36.8H5.769A6.079,6.079,0,0,1,0,30.519" transform="translate(3.708 39.196)"/><path class="i" d="M0,0H5.357a6.079,6.079,0,0,1,5.769,6.283V30.519A6.079,6.079,0,0,1,5.357,36.8H0" transform="translate(9.477 39.196)"/><path class="k" d="M0,0H6.867c3.159,0,4.258,2.842,4.258,6.283V30.519A6.079,6.079,0,0,1,5.357,36.8" transform="translate(9.477 39.196)"/></g></g></svg>