<svg xmlns="http://www.w3.org/2000/svg" width="38.012" height="44.5" viewBox="0 0 38.012 44.5"><path d="M42.395,43.821,32.517,32.258a1.868,1.868,0,0,0-1.411-.723,1.6,1.6,0,0,0-.529.1L29.18,30a17.422,17.422,0,0,0,2.631-9.31C31.811,12.025,25.81,5,18.406,5S5,12.025,5,20.694s6,15.694,13.406,15.694a12.1,12.1,0,0,0,7.952-3.08l1.4,1.635a2.513,2.513,0,0,0,.529,2.271l9.878,11.564a1.739,1.739,0,0,0,2.822,0l1.411-1.652A2.52,2.52,0,0,0,42.395,43.821ZM18.406,33.566c-7.3,0-10.961-8.589-10.961-12.872S11.7,7.585,18.7,7.585,29.18,15.345,29.18,20.694,25.7,33.566,18.406,33.566Zm9.689.607-1.166-1.365a14.891,14.891,0,0,0,1.825-2.136l1.166,1.365a2.438,2.438,0,0,0-.225.221L28.283,33.91A2.649,2.649,0,0,0,28.1,34.173Z" transform="translate(-5 -5)"/><g transform="translate(2.117 2.478)"><path d="M19.289,8C13.065,8,8,13.929,8,21.216s5.065,13.216,11.289,13.216S30.578,28.5,30.578,21.216,25.513,8,19.289,8Zm0,25.606c-5.845,0-10.583-5.547-10.583-12.39s4.739-12.39,10.583-12.39,10.583,5.547,10.583,12.39S25.134,33.606,19.289,33.606Z" transform="translate(-8 -8)"/></g></svg>