<svg xmlns="http://www.w3.org/2000/svg" width="38.012" height="54.111" viewBox="0 0 38.012 54.111"><defs><style>.a{fill:#575757;}</style></defs><path d="M113.834,113.3l1.5,1.755a.915.915,0,0,0,1.369.079l19.824-19.015c4.888-.263,8.713-5.024,8.638-10.751s-4.023-10.349-8.915-10.437-8.959,4.39-9.184,10.112l-16.242,23.208a1.349,1.349,0,0,0,.068,1.6l1.5,1.755-3.424,4.009a8.144,8.144,0,0,0,0,10.243,5.572,5.572,0,0,0,8.75,0l6.69-7.832a2.351,2.351,0,0,1,3.692,0,3.436,3.436,0,0,1,0,4.322L124.127,127a1.344,1.344,0,0,0,0,1.691.92.92,0,0,0,1.444,0l3.97-4.648a6.125,6.125,0,0,0,0-7.7,4.19,4.19,0,0,0-6.581,0l-6.69,7.832a3.732,3.732,0,0,1-5.861,0,5.455,5.455,0,0,1,0-6.862Zm17.313-33.569a6.315,6.315,0,0,1,9.917,0,9.23,9.23,0,0,1,0,11.61,6.315,6.315,0,0,1-9.917,0,9.2,9.2,0,0,1,0-11.61Z" transform="translate(-107.153 -74.93)"/><path class="a" d="M208.035,243.461a.949.949,0,0,0,.722-.35l2.366-2.77a1.344,1.344,0,0,0,0-1.691.92.92,0,0,0-1.444,0l-2.366,2.77a1.348,1.348,0,0,0-.221,1.3A1.034,1.034,0,0,0,208.035,243.461Z" transform="translate(-194.266 -213.885)"/></svg>